<?xml version="1.0" standalone="no"?>
<!DOCTYPE svg PUBLIC "-//W3C//DTD SVG 1.1//EN" "http://www.w3.org/Graphics/SVG/1.1/DTD/svg11.dtd" >
<!--
2013-9-30: Created.
-->
<svg>
<metadata>
Created by iconfont
</metadata>
<defs>

<font id="iconfont" horiz-adv-x="1024" >
  <font-face
    font-family="iconfont"
    font-weight="500"
    font-stretch="normal"
    units-per-em="1024"
    ascent="896"
    descent="-128"
  />
    <missing-glyph />
    
    <glyph glyph-name="xiaoxixinxiduanxintixingyoujiantongzhisixin1" unicode="&#59072;" d="M1271.463488 895.99744H92.927768C68.266496 895.99744 44.629222 885.757466 27.135932 867.752177c-17.322623-18.090621-27.135932-42.66656-27.135932-68.266496v-830.973922C0-84.821441 41.557229-128 92.842435-128h1179.64505c24.575939 0 48.213213 10.239974 65.706503 28.245263 17.322623 18.090621 27.135932 42.66656 27.135932 68.266496V799.485681c0 25.770602-9.898642 50.431874-27.562598 68.607829A91.050439 91.050439 0 0 1 1271.548821 895.99744zM528.553345 316.926888l92.927768-64.682505a98.986419 98.986419 0 0 1 109.567726 0l109.567726 64.682505 384.511039-342.612477H141.14098l387.412365 342.612477z m150.442291 22.186611L102.143745 730.963186V792.744365h1159.165102v-65.706503L678.910303 339.198832zM440.318899 377.684069L103.253075 81.407476V606.462164l337.065824-228.692762z m821.075281 228.692762v-523.092026L928.765678 380.585395l332.543169 225.876769z"  horiz-adv-x="1365" />

    
    <glyph glyph-name="jianchaka" unicode="&#59071;" d="M507.726985-125.01246H92.649433C43.206249-125.01246 2.975637-84.686628 2.975637-35.112516V803.124419C2.975637 852.698531 43.206249 893.024363 92.649433 893.024363h716.830946c49.443184 0 89.661893-40.325832 89.661894-89.899944v-298.88488h-54.525572V836.487261H60.655384v-904.200856h447.071601v-57.310768z m491.182444 18.972661c-8.557932 0-17.853822 4.796727-26.899758 13.878371l-111.967268 108.075135-1.844895 1.773479-2.023433-1.547331a218.364144 218.364144 0 0 0-133.570393-45.229682c-121.83448 0-220.958899 99.386275-220.958899 221.530221 0 122.143946 99.124419 221.530221 220.958899 221.530222s220.958899-99.386275 220.958899-221.530222c0-48.050586-15.187651-93.80398-43.920401-132.320625l-1.011717-1.368793 0.65464-1.559233 1.737772-4.142087 0.238051-0.535615 0.416589-0.416589 104.778129-104.099684c17.020643-17.068254 19.972475-32.386833 9.010229-46.824623-4.772922-4.725312-10.498047-7.212944-16.556444-7.212944zM726.055421 358.599963c-93.530221 0-169.611307-76.092989-169.611307-169.611308S632.513297 19.377348 726.055421 19.377348c93.518319 0 169.611307 76.092989 169.611308 169.611307S819.561837 358.599963 726.055421 358.599963zM377.286963 134.30835H219.923377c-10.283801 0-28.625628 9.807699-28.625627 29.339781 0 11.057467 5.772736 18.294216 10.617072 22.412498C208.139855 191.369165 215.436117 193.749675 219.923377 193.749675h157.351683c11.30742 0 32.910545-11.72401 32.910545-30.101544 0-10.474242-6.617817-17.532453-12.164404-21.603124-7.284359-5.344244-15.663753-7.736656-20.734238-7.736657z m126.024177 233.361354h-275.424958c-6.689232 0-16.235075 0.892691-23.840804 5.165706-8.438906 4.737214-12.711921 12.747629-12.711921 23.805096 0 11.271713 4.284917 19.424958 12.735727 24.24549 7.593826 4.332527 17.139669 5.237121 23.805095 5.237121h275.436861c6.617817 0 16.080342-0.904594 23.614655-5.237121 8.379394-4.820532 12.616701-12.973777 12.616701-24.24549 0-10.545657-3.773108-18.306119-11.224103-23.090943-6.106007-3.904036-14.521108-5.879859-25.007253-5.879859z m125.488562 230.849917h-398.378277c-22.4244 0-33.327134 9.057839-33.327135 27.709131 0 9.224475 2.689976 17.068254 7.784267 22.674354 5.796541 6.367863 14.402083 9.605356 25.542868 9.605356h398.378277c24.185977 0 37.516831-11.462154 37.516831-32.27971 0-19.163102-11.569277-27.709131-37.516831-27.709131zM504.751348-122.036824v51.359495H57.679747V839.4748H847.580435v-332.259624h48.574298V803.112516C896.166636 851.067882 857.281012 890.048726 809.492282 890.048726H92.649433C44.8488 890.048726 5.951274 851.055979 5.951274 803.124419v-838.236935c0-47.93156 38.897527-86.924307 86.698159-86.924308h412.101915m494.158081 18.972662c5.189511 0 10.140971 2.142459 14.306863 6.21313 4.808629 6.379766 6.546401 12.783336 5.332341 19.520178-1.30928 7.272457-6.082202 15.092431-14.187837 23.221871l-104.790032 104.087782-0.833178 0.833178-0.452297 1.095034-1.737772 4.130184-1.30928 3.130371 2.023433 2.737586a216.745397 216.745397 0 0 1 43.325274 130.535242c0 120.513297-97.779431 218.554584-217.983262 218.554585-120.191929 0-217.983262-98.041287-217.983262-218.554585 0-120.513297 97.791333-218.554584 217.983262-218.554584 47.967268 0 93.530221 15.425702 131.761205 44.610749l4.058769 3.094663 3.68979-3.546959 111.919658-108.015622 0.035708-0.047611 0.04761-0.035707c8.474614-8.510322 17.044449-13.009485 24.793007-13.009485M726.055421 361.5756c95.16087 0 172.586944-77.426074 172.586945-172.586945S821.204389 16.401711 726.055421 16.401711c-95.172773 0-172.586944 77.426074-172.586944 172.586944S630.870746 361.5756 726.055421 361.5756M377.286963 137.283987c8.938813 0 29.923005 8.974521 29.923005 26.364144 0 9.188767-5.915566 15.687558-10.878928 19.520178-6.808257 5.249024-14.473498 7.605728-19.044077 7.605729H219.923377c-3.808815 0-10.46234-2.190069-16.080342-6.974893-4.368235-3.713595-9.569649-10.236191-9.569648-20.151014 0-17.306305 16.687372-26.364144 25.64999-26.364144h157.351683m126.03608 233.361354c9.90292 0 17.782407 1.82109 23.400409 5.41566 6.641622 4.24921 9.867212 10.986052 9.867212 20.591407 0 10.259996-3.64218 17.342012-11.128882 21.662638-6.974893 3.999256-15.889901 4.832434-22.138739 4.832434h-275.424958c-6.320253 0-15.318579-0.833178-22.352985-4.85624-7.546215-4.308722-11.224103-11.390738-11.224103-21.650734 0-10.04575 3.665985-16.984936 11.188395-21.21034 7.046308-3.963548 16.06844-4.784824 22.37679-4.784825h275.436861m125.488562 230.849917c30.434815 0 34.541194 12.497675 34.541194 24.733494 0 9.355403-2.880417 16.604054-8.557932 21.543612-5.832248 5.082388-14.818672 7.760461-25.983262 7.760461h-398.378277c-10.271899 0-18.12758-2.904222-23.340897-8.64125-4.594383-5.04668-7.022503-12.188209-7.022503-20.662823 0-10.617073 3.154175-24.733495 30.3634-24.733494h398.378277m-118.09708-729.483355h-0.011902 0.011902z m0 0H92.649433c-51.085736 0-92.649433 41.658918-92.649433 92.875581V803.124419C0 854.32918 41.563697 896 92.649433 896h716.830946c51.085736 0 92.63753-41.658918 92.637531-92.875581v-301.860517h-60.476846V833.511624H63.631021v-898.249582h447.071601v-63.262042z m488.206807 18.972661c-9.367305 0-19.401153 5.106193-29.018412 14.759159l-111.919658 108.027525a221.327878 221.327878 0 0 0-135.367677-45.824809c-123.477032 0-223.934536 100.695555-223.934536 224.482053 0 123.798401 100.457504 224.517761 223.934536 224.517761S946.538218 316.226892 946.538218 192.440394c0-48.693323-15.389994-95.06565-44.515529-134.106007l1.749675-4.130184 104.778129-104.087781c18.091873-18.12758 21.16273-35.255347 9.164962-50.907198-5.379952-5.379952-11.878743-8.224661-18.806026-8.22466zM726.055421 355.624326c-91.88767 0-166.63567-74.748001-166.63567-166.635671s74.748001-166.63567 166.63567-166.63567 166.63567 74.748001 166.635671 166.63567-74.748001 166.63567-166.635671 166.635671zM377.286963 131.332713H219.923377c-11.343128 0-31.601265 10.795611-31.601264 32.315418 0 21.710247 20.567603 33.077181 31.601264 33.077181h157.351683c12.652408 0 35.886182-12.557188 35.886182-33.077181 0-20.900874-23.709875-32.315418-35.874279-32.315418z m126.024177 233.361354h-275.424958c-14.759159 0-39.516459 4.142087-39.516459 31.946439 0 28.244746 24.7573 32.458248 39.516459 32.458248h275.424958c14.640134 0 39.218895-4.213502 39.218895-32.458248 0-11.616887-4.24921-20.234331-12.6167-25.590478-6.594012-4.225405-15.544728-6.355961-26.602195-6.355961z m125.488562 230.849917h-398.378277c-24.090757 0-36.302771 10.319509-36.302771 30.684768 0 9.986238 2.951832 18.508462 8.557931 24.673982 6.391668 7.022503 15.723266 10.593268 27.74484 10.593267h398.378277c25.733309 0 40.492468-12.854752 40.492468-35.267249 0-20.936582-12.866654-30.684768-40.492468-30.684768z"  horiz-adv-x="1024" />

    
    <glyph glyph-name="huifuka" unicode="&#59070;" d="M26.439156-128a26.20925 26.20925 0 0 0-18.392456 7.816794 27.174854 27.174854 0 0 0-7.862775 18.898249v287.933902 1.057566a26.071307 26.071307 0 0 0 0.321868 6.161473L114.90687 873.745128A26.485137 26.485137 0 0 0 140.840233 896h750.458195a26.715043 26.715043 0 0 0 26.117288-22.57674l107.779794-686.774315v-287.933902a26.99093 26.99093 0 0 0-7.678851-18.898249 26.761024 26.761024 0 0 0-18.714324-7.816794z m31.175213 315.108756v-258.459991h913.599282v258.459991l-280.117109-0.459811c-29.933722-68.649843-78.167939-133.621194-170.498069-133.621195a195.603772 195.603772 0 0 0-176.935429 134.678761z m8.736417 48.234217h293.49762a48.78599 48.78599 0 0 0 47.59048-39.451819 125.39057 125.39057 0 0 1 113.159587-94.123395 125.620476 125.620476 0 0 1 113.205568 94.123395 48.37216 48.37216 0 0 0 47.452537 39.451819h279.795241L870.147104 838.247687H165.256219z m655.277234 50.073462a21.978985 21.978985 0 0 0-14.392097 21.519173 131.781949 131.781949 0 0 1-49.153839 91.962282c-32.186798 31.497081-89.985092 43.176291-170.130221 34.072025v-88.007903a22.208891 22.208891 0 0 0-14.53004-20.277683 25.703458 25.703458 0 0 0-26.117288 4.598114L249.171801 512.011495a21.013381 21.013381 0 0 0-7.035115 15.495645 20.507589 20.507589 0 0 0 7.035115 15.495644l198.132734 182.729053a24.829816 24.829816 0 0 0 25.933364 4.598114 21.978985 21.978985 0 0 0 14.713964-20.277683v-84.927167c263.701841-4.598114 304.211226-112.239964 311.430265-193.488639a219.284059 219.284059 0 0 0-50.579254-141.437989 25.611495 25.611495 0 0 0-17.426852-6.897171 25.611495 25.611495 0 0 0-9.748002 2.115133z m-167.69322 203.466547a206.547283 206.547283 0 0 0 139.000988-47.912349 165.853974 165.853974 0 0 0 47.912349-78.167939 183.004939 183.004939 0 0 1 7.67885 88.743601c-5.379793 25.657476-22.57674 112.102021-256.022991 116.240324h-50.579254V643.057746L310.924472 528.932555l136.196139-122.999551v82.766053c27.910552 0.781679 44.233857 1.517378 61.430803 1.517378 12.828738 0.183925 26.20925-0.229906 45.383386-1.425416z"  horiz-adv-x="1025" />

    
    <glyph glyph-name="zu6" unicode="&#59069;" d="M72.780206 826.990661c-1.873111 0-3.746221-1.873111-3.746221-3.647636v-878.439588c0-1.971695 1.873111-3.894098 3.696929-3.894098h878.390295c1.675941 0 3.795514 1.774526 3.795514 3.844806V823.24444c0 1.725233-1.675941 3.746221-3.795514 3.746221H72.730914m0 69.009339h878.390295c40.222586 0 72.854145-32.878021 72.854145-72.75556v-878.390295c0-40.222586-33.025898-72.854145-72.903437-72.854145H72.681621A73.100607 73.100607 0 0 0 0.024646-55.096563V823.293733A72.952729 72.952729 0 0 0 72.780206 896zM658.275152 91.548282a33.518822 33.518822 0 0 0-18.287475 5.520747c-17.449504 11.189371-23.413883 36.082026-13.308944 55.60181l62.108405 78.177722H259.549052a40.124001 40.124001 0 0 0 0 80.19871h506.725715v-0.098585a35.096178 35.096178 0 0 0 19.963415-5.422162 40.666217 40.666217 0 0 0 17.203043-24.744778 44.363146 44.363146 0 0 0-3.746222-30.80774l-109.724848-138.018677a35.983441 35.983441 0 0 0-31.695003-20.357755z m106.175796 365.601617H259.450467l-1.823818 0.049292a34.208915 34.208915 0 0 0-19.963416 5.422163 40.51834 40.51834 0 0 0-17.104458 24.794069 44.609608 44.609608 0 0 0 3.746222 30.758448l109.724848 138.117262a36.082026 36.082026 0 0 0 31.744296 20.308463c6.21084 0 12.470973-1.774526 18.238182-5.422163 17.498797-11.337248 23.413883-36.131318 13.308944-55.60181L335.212862 537.348609h429.238086a40.124001 40.124001 0 1 0 0-80.19871z"  horiz-adv-x="1024" />

    
    <glyph glyph-name="guanlika" unicode="&#59066;" d="M782.079289-67.490499c39.284328 0 76.613749 12.47417 107.659539 35.467604l21.550526 18.897438a178.501656 178.501656 0 0 1 51.665407 126.044976c0 45.800686-17.082166 89.087919-48.221047 122.600616l-4.933813 4.980359a179.432564 179.432564 0 0 1-127.720612 52.829043h-180.875472v-180.410018a178.734383 178.734383 0 0 1 52.96868-127.487884 180.037655 180.037655 0 0 1 127.906792-52.875588m-540.299145 0a180.177291 180.177291 0 0 1 130.559882 55.528677 179.944564 179.944564 0 0 1 50.31559 124.834795v180.410018H241.780144a179.432564 179.432564 0 0 1-127.720611-52.829043l-4.56145-4.56145A178.594747 178.594747 0 0 1 60.951218 112.919519a178.734383 178.734383 0 0 1 52.829043-127.441339 180.270382 180.270382 0 0 1 127.999883-52.922133M422.655616 471.877738V652.427392c0 47.47632-18.292347 92.159916-51.572317 125.998431l-0.139636 0.139636-1.396362 1.396363a179.47911 179.47911 0 0 1-127.767157 52.829043c-47.47632 0-92.299552-18.245802-126.277703-51.386135A179.199837 179.199837 0 0 1 60.951218 652.427392c0-48.221047 18.850892-93.556279 52.875588-127.62752a180.270382 180.270382 0 0 1 127.999884-52.922134h180.875472m359.423673 2.83927a179.432564 179.432564 0 0 1 127.720611 52.829043l1.396362 1.396363 0.093091 0.139636a178.501656 178.501656 0 0 1 51.665408 126.044976 178.548201 178.548201 0 0 1-51.665408 126.044977l-21.736707 19.083619a179.758382 179.758382 0 0 1-107.519903 35.234877 179.665291 179.665291 0 0 1-127.906792-52.922134 178.734383 178.734383 0 0 1-52.922134-127.441339v-180.410018h180.875472m0-602.669997a241.105235 241.105235 0 0 0-170.635481 70.562845 239.848509 239.848509 0 0 0-70.749027 170.356209v214.341623c0 14.754896 12.101807 26.530885 26.530885 26.530885h214.853623c66.559939 0 126.789703-26.856703 170.495845-70.562845h0.186181a239.988145 239.988145 0 0 0 70.655936-170.356209c0-66.420303-26.996339-126.603521-70.655936-170.170027l-0.186181-0.139636h0.186181A241.05869 241.05869 0 0 0 782.079289-127.999535zM241.780144-127.999535A241.291417 241.291417 0 0 0 0.442182 112.919519c0 66.559939 26.996339 126.836248 70.655936 170.356209h0.186181a240.127782 240.127782 0 0 0 170.495845 70.562845h214.900169a25.925795 25.925795 0 0 0 18.711255-7.633448c4.887268-5.119995 7.773084-11.775989 7.773084-18.897437v-214.388169a240.872508 240.872508 0 0 0-70.702481-170.356209 241.05869 241.05869 0 0 0-170.682027-70.516299z m214.900169 539.321692H241.780144A241.291417 241.291417 0 0 0 0.442182 652.427392a240.267418 240.267418 0 0 0 72.285025 171.752571A240.779417 240.779417 0 0 0 241.780144 893.299901c66.606485 0 126.975885-26.996339 170.495845-70.5163l0.186182-0.186182a239.615782 239.615782 0 0 0 70.702481-170.170027v-214.527805a26.530885 26.530885 0 0 0-26.530885-26.530885z m325.352431 2.83927h-214.760532a26.57743 26.57743 0 0 0-26.530885 26.530885V655.127026c0 66.420303 26.996339 126.789703 70.702481 170.356209A240.4536 240.4536 0 0 0 782.079289 895.999535c66.699576 0 126.929339-26.810157 170.682027-70.5163h-0.186182l0.186182-0.186182a239.615782 239.615782 0 0 0 70.655936-170.170027c0-66.420303-26.996339-126.650067-70.655936-170.170027l-0.186182-0.186182a240.127782 240.127782 0 0 0-170.495845-70.562844z"  horiz-adv-x="1024" />

    
    <glyph glyph-name="shijian1" unicode="&#59068;" d="M509.893004 887.572016c-278.123457 0-501.465021-223.341564-501.46502-501.46502s223.341564-501.465021 501.46502-501.465021c278.123457 0 501.465021 223.341564 501.465021 501.465021s-223.341564 501.465021-501.465021 501.46502z m0-939.720164c-240.197531 0-438.255144 198.057613-438.255144 438.255144s198.057613 438.255144 438.255144 438.255144 438.255144-198.057613 438.255144-438.255144-193.843621-438.255144-438.255144-438.255144zM556.246914 402.962963c-4.213992 4.213992-8.427984 8.427984-12.641976 8.427984v219.127572c0 12.641975-8.427984 21.069959-21.069959 21.069958h-4.213991c-12.641975 0-21.069959-8.427984-21.069959-21.069958v-219.127572c-8.427984-4.213992-16.855967-12.641975-25.283951-25.283951-8.427984-12.641975-8.427984-25.283951-4.213992-42.139918 4.213992-12.641975 12.641975-25.283951 25.283951-29.497942 8.427984-4.213992 16.855967-4.213992 25.283951-4.213992 4.213992 0 12.641975 0 16.855967 4.213992 8.427984 4.213992 16.855967 8.427984 21.069959 12.641975h168.55967v75.851852h-168.55967z"  horiz-adv-x="1024" />

    
    <glyph glyph-name="shezhika" unicode="&#59067;" d="M619.23301-74.828887s-14.23829 19.666638-35.595725 49.78952a417.448857 417.448857 0 0 0-84.539845 0.756409c-22.781264-32.036152-37.775962-52.726167-37.775963-52.726167a104.250978 104.250978 0 0 0-89.790214-50.056487 105.140871 105.140871 0 0 0-52.993135 14.23829L221.584274-56.586078a104.250978 104.250978 0 0 0-48.944121 64.339272 104.473451 104.473451 0 0 0 10.589728 80.090379s10.144781 22.469801 25.673416 56.241245a422.699227 422.699227 0 0 0-42.581385 73.015729l-63.93882 6.184758a105.096376 105.096376 0 0 0-102.337707 105.89728V441.264622a106.164248 106.164248 0 0 0 105.630312 105.452333s22.781264 2.358217 57.131137 5.428348a377.492657 377.492657 0 0 0 22.247328 44.806118 347.814721 347.814721 0 0 0 22.247328 33.771443l-24.383072 53.61606a105.051881 105.051881 0 0 0 40.401148 141.626488L320.584882 881.806205A105.140871 105.140871 0 0 0 373.177565 895.911011a106.47571 106.47571 0 0 0 91.65899-52.904146s11.924568-16.596506 29.989398-42.180933a413.17737 413.17737 0 0 0 96.197445 0c19.444164 27.008256 31.591205 44.049709 31.591205 44.049709A104.428956 104.428956 0 0 0 712.538302 894.976623a106.164248 106.164248 0 0 0 52.859651-14.416268l96.953854-56.241245a105.89728 105.89728 0 0 0 38.665855-144.251673L879.704722 633.481533a423.322152 423.322152 0 0 0 47.609282-83.738942c28.031633-2.625185 47.431303-4.716433 52.85965-5.294864a103.806031 103.806031 0 0 0 72.882246-31.146258 104.695924 104.695924 0 0 0 30.834796-74.929v-112.082037a105.986269 105.986269 0 0 0-105.630312-105.452333s-22.247328-2.224733-55.796298-5.294864a421.987312 421.987312 0 0 0-18.198314-36.129661 393.421743 393.421743 0 0 0-28.076127-41.558008l24.249587-53.393586a104.606935 104.606935 0 0 0 9.521856-78.75554 104.740419 104.740419 0 0 0-49.300078-64.205788l-97.265317-55.840793a106.787173 106.787173 0 0 0-52.637177-14.104806 106.297732 106.297732 0 0 0-91.525506 53.61606z m6.451725 102.827149a4398.341184 4398.341184 0 0 1 47.920744-67.720866 42.937342 42.937342 0 0 1 37.286521-23.359694 41.068567 41.068567 0 0 1 20.289563 5.428348l97.265316 55.840793a40.71261 40.71261 0 0 1 19.266186 24.961501 40.890588 40.890588 0 0 1-4.004519 31.146259 32.703572 32.703572 0 0 0-1.601807 2.936648l-32.881551 72.437299a32.570088 32.570088 0 0 0 4.449466 34.21639 352.842618 352.842618 0 0 1 34.483358 48.632658 337.580951 337.580951 0 0 1 22.247327 46.140958 32.570088 32.570088 0 0 0 27.008256 20.289563c46.274442 4.093508 77.554184 7.030156 77.732163 7.030155a42.269923 42.269923 0 0 1 44.183193 41.113062l0.311463 112.215521a40.445642 40.445642 0 0 1-12.058052 28.921526 49.344573 49.344573 0 0 1-32.21413 12.191535s-29.633441 3.070131-73.549666 7.208134a32.169636 32.169636 0 0 0-27.319718 21.134962 349.505518 349.505518 0 0 1-57.309116 100.468932 32.926045 32.926045 0 0 0-4.093509 34.082906l30.656818 66.741983a44.049709 44.049709 0 0 1 5.606326 33.949422 40.801599 40.801599 0 0 1-19.132701 24.961502L733.272811 825.209003a41.95846 41.95846 0 0 1-56.10776-14.81672c-1.779786-2.803163-18.954723-26.696793-44.494655-62.292518a32.748066 32.748066 0 0 0-31.591206-13.348396 351.018337 351.018337 0 0 1-115.686104 0 31.991657 31.991657 0 0 0-31.858173 13.348396l-42.892848 60.512732a42.136439 42.136439 0 0 1-57.843052 17.797862L255.66718 770.569566a40.979578 40.979578 0 0 1-15.128183-55.974276c1.290345-2.936647 14.371774-31.724689 33.63796-73.727644a32.392109 32.392109 0 0 0-3.960025-33.63796 350.350917 350.350917 0 0 1-29.232988-42.002954 358.003998 358.003998 0 0 1-25.094986-54.061007 32.258625 32.258625 0 0 0-27.453202-21.001477c-47.164335-4.093508-79.155992-7.341618-79.333971-7.341618H105.89817a40.979578 40.979578 0 0 1-40.979578-40.979578l-0.311462-111.948553a41.246546 41.246546 0 0 1 40.979577-41.113062c3.24811 0 36.708091-3.515078 85.830191-8.098027a32.748066 32.748066 0 0 0 27.141739-20.423047A351.507778 351.507778 0 0 1 271.418288 169.313288a32.436604 32.436604 0 0 0 4.449466-33.949423c-21.001477-45.117581-35.106283-76.085861-35.106283-76.219344a42.759364 42.759364 0 0 1-5.561832-33.949422 40.312158 40.312158 0 0 1 18.954723-24.961502l96.953854-56.241245a42.091944 42.091944 0 0 1 56.10776 14.816721c1.779786 2.803163 21.757887 30.38985 50.545929 70.968975a31.947163 31.947163 0 0 0 31.457721 13.348397 351.507778 351.507778 0 0 1 105.31885-0.889893 32.30312 32.30312 0 0 0 4.671939 0.355957 32.347614 32.347614 0 0 0 26.296341-14.594247z m-175.486921 197.734249a188.523855 188.523855 0 0 0-68.299296 257.223603 189.102286 189.102286 0 0 0 163.028417 93.883723 188.256887 188.256887 0 0 0 94.284175-25.406449 187.322499 187.322499 0 0 0 87.565482-114.573737 186.56609 186.56609 0 0 0-19.266186-142.78335 188.835318 188.835318 0 0 0-162.894934-93.883723 188.879812 188.879812 0 0 0-94.462153 25.539933z m-12.32502 224.742504a123.650647 123.650647 0 0 1 44.939602-168.768228 122.182324 122.182324 0 0 1 61.847571-16.72999 123.784131 123.784131 0 0 1 106.787173 61.536108 122.983228 122.983228 0 0 1 12.636482 93.705745 122.671765 122.671765 0 0 1-57.4426 75.062483 122.04884 122.04884 0 0 1-61.847571 16.729991 124.184583 124.184583 0 0 1-107.14313-61.536109z"  horiz-adv-x="1084" />

    
    <glyph glyph-name="shuifeijianmian1" unicode="&#59065;" d="M151.331663 258.299728a551.388815 551.388815 0 0 0 90.569707 250.363278c23.092819 39.962041 49.952551 81.889428 79.814896 125.181639q54.592952 78.941409 114.645199 154.06131 23.693341 29.916938 48.205577 59.124167l3.930692 4.585808 23.693341 27.624034 23.85712-27.624034 3.766914-4.585808c3.166391-3.603135 6.66034-7.970571 10.91859-12.610972 12.665565-15.504398 25.276537-30.954204 37.614544-46.513195q59.724689-75.174495 114.645199-154.06131a1907.750706 1907.750706 0 0 0 79.651117-125.181639 551.388815 551.388815 0 0 0 90.569708-250.363278 368.120275 368.120275 0 0 0-360.695634-375.381138A368.229461 368.229461 0 0 0 151.331663 258.299728z m333.945087 489.15285Q426.698513 674.188836 373.361198 596.830623c-28.770486-41.763608-54.592952-82.380765-76.976062-120.75961a502.582716 502.582716 0 0 1-81.889428-217.771285 304.355707 304.355707 0 0 1 297.313217-311.179826 304.464893 304.464893 0 0 1 297.422402 311.179826 503.292424 503.292424 0 0 1-81.889428 217.771285c-22.110146 38.215066-48.041798 78.996001-76.812283 120.75961q-53.555686 77.249027-111.915552 150.621955l-26.859732 33.192514c-7.861385-10.263475-16.978408-21.345844-26.422989-33.192514zM367.519753 189.34883c0 81.398091 75.065309 40.12582 144.452951 0a88.931919 88.931919 0 0 1 88.822732 10.154289c32.755771 17.524338 55.793997 35.267047 55.793997-10.154289a146.036147 146.036147 0 0 0-144.616729-147.400971 145.926961 145.926961 0 0 0-144.562137 147.455564z"  horiz-adv-x="1024" />

    
    <glyph glyph-name="shuifeijianmian" unicode="&#59064;" d="M605.866667 541.866667c-21.333333 34.133333-46.933333 64-72.533334 93.866666l-8.533333 12.8c-4.266667-4.266667-8.533333-8.533333-8.533333-12.8l-8.533334 4.266667 8.533334-4.266667c-25.6-29.866667-46.933333-64-72.533334-93.866666-17.066667-25.6-34.133333-51.2-46.933333-76.8-25.6-38.4-46.933333-85.333333-51.2-132.266667-4.266667-98.133333 76.8-183.466667 174.933333-187.733333h4.266667c98.133333 0 179.2 76.8 179.2 174.933333v12.8c-4.266667 46.933333-25.6 93.866667-51.2 132.266667-12.8 25.6-29.866667 51.2-46.933333 76.8z m-81.066667-354.133334c-55.466667 0-102.4 46.933333-102.4 102.4 0 17.066667 4.266667 29.866667 12.8 34.133334 21.333333 12.8 51.2-4.266667 89.6-25.6 17.066667-8.533333 38.4 0 55.466667 8.533333 12.8 8.533333 25.6 12.8 34.133333 8.533333 8.533333-4.266667 8.533333-17.066667 8.533333-25.6 4.266667-55.466667-42.666667-102.4-98.133333-102.4zM1024 384c0 273.066667-213.333333 494.933333-482.133333 507.733333h-59.733334c-268.8-17.066667-482.133333-238.933333-482.133333-507.733333 0-264.533333 200.533333-482.133333 460.8-507.733333 17.066667 0 34.133333-4.266667 51.2-4.266667 17.066667 0 34.133333 0 51.2 4.266667 260.266667 25.6 460.8 243.2 460.8 507.733333z m-324.266667-221.866667c-42.666667-46.933333-102.4-72.533333-166.4-76.8h-8.533333c-59.733333 0-119.466667 21.333333-162.133333 64-46.933333 42.666667-72.533333 102.4-76.8 166.4v12.8h8.533333-8.533333c4.266667 59.733333 25.6 115.2 59.733333 162.133334 12.8 25.6 29.866667 51.2 51.2 81.066666 21.333333 34.133333 46.933333 68.266667 72.533333 98.133334 8.533333 12.8 21.333333 25.6 29.866667 38.4l25.6 29.866666 29.866667-34.133333c8.533333-8.533333 17.066667-21.333333 25.6-29.866667 25.6-29.866667 51.2-64 72.533333-98.133333 21.333333-29.866667 38.4-55.466667 51.2-81.066667 34.133333-46.933333 51.2-102.4 59.733333-162.133333 0-64-21.333333-123.733333-64-170.666667z"  horiz-adv-x="1024" />

    
    <glyph glyph-name="chexiao2" unicode="&#59063;" d="M1024 384c0 273.066667-213.333333 494.933333-482.133333 507.733333h-59.733334c-268.8-17.066667-482.133333-238.933333-482.133333-507.733333 0-264.533333 200.533333-482.133333 460.8-507.733333 17.066667 0 34.133333-4.266667 51.2-4.266667 17.066667 0 34.133333 0 51.2 4.266667 260.266667 25.6 460.8 243.2 460.8 507.733333z m-243.2-128c-12.8-34.133333-34.133333-64-64-89.6-51.2-51.2-123.733333-81.066667-200.533333-76.8-17.066667 0-25.6 12.8-25.6 29.866667 0 17.066667 12.8 29.866667 29.866666 25.6 59.733333 0 115.2 21.333333 157.866667 59.733333 89.6 89.6 93.866667 230.4 12.8 324.266667-81.066667 89.6-217.6 98.133333-307.2 17.066666l-8.533333-8.533333c-42.666667-42.666667-68.266667-98.133333-72.533334-162.133333l64 46.933333c12.8 8.533333 29.866667 8.533333 38.4-4.266667 8.533333-12.8 4.266667-29.866667-8.533333-38.4l-115.2-85.333333c-12.8-8.533333-29.866667-8.533333-38.4 4.266667l-85.333333 123.733333c-8.533333 12.8-4.266667 29.866667 8.533333 38.4 12.8 8.533333 29.866667 8.533333 38.4-4.266667l42.666667-64c4.266667 72.533333 38.4 136.533333 89.6 187.733334 51.2 51.2 123.733333 81.066667 200.533333 76.8 38.4 0 72.533333-8.533333 106.666667-25.6 34.133333-17.066667 64-38.4 85.333333-64 25.6-25.6 42.666667-59.733333 55.466667-93.866667 12.8-34.133333 21.333333-72.533333 17.066666-110.933333 4.266667-34.133333-4.266667-72.533333-21.333333-106.666667z"  horiz-adv-x="1024" />

    
    <glyph glyph-name="weiyuejinjianmian" unicode="&#59062;" d="M512 896c-281.6 0-512-230.4-512-512s230.4-512 512-512 512 230.4 512 512-230.4 512-512 512z m285.866667-695.466667c0-8.533333-4.266667-12.8-8.533334-17.066666-8.533333-8.533333-21.333333-4.266667-29.866666-4.266667h-115.2-4.266667c-12.8 0-25.6 12.8-21.333333 25.6 0 12.8 12.8 25.6 25.6 21.333333h51.2l-128 132.266667c-8.533333 8.533333-17.066667 8.533333-25.6 0l-68.266667-55.466667-4.266667-4.266666c-25.6-17.066667-55.466667-17.066667-81.066666 4.266666l-196.266667 196.266667c-12.8 12.8-8.533333 34.133333 4.266667 42.666667 4.266667 4.266667 12.8 8.533333 21.333333 8.533333s17.066667-4.266667 25.6-8.533333l187.733333-187.733334 81.066667 64c25.6 21.333333 64 17.066667 85.333333-4.266666l140.8-140.8v29.866666c0 12.8 12.8 25.6 25.6 25.6 8.533333 0 12.8-4.266667 17.066667-8.533333 4.266667-4.266667 8.533333-12.8 8.533333-17.066667v-102.4z"  horiz-adv-x="1024" />

    
    <glyph glyph-name="biaodan2" unicode="&#59061;" d="M580.266667 537.6h98.133333l-98.133333 93.866667zM533.333333 640h-187.733333v-183.466667h115.2c12.8 0 21.333333-12.8 21.333333-25.6s-8.533333-25.6-21.333333-25.6h-115.2v-38.4H605.866667c12.8 0 21.333333-12.8 21.333333-25.6s-8.533333-25.6-21.333333-25.6H345.6v-38.4H605.866667c12.8 0 21.333333-12.8 21.333333-25.6s-8.533333-25.6-21.333333-25.6H345.6v-72.533333h337.066667v328.533333h-149.333334v157.866667zM512 896c-281.6 0-512-230.4-512-512s230.4-512 512-512 512 230.4 512 512-230.4 512-512 512z m217.6-738.133333c0-12.8-4.266667-21.333333-12.8-29.866667-8.533333-8.533333-17.066667-12.8-29.866667-12.8h-345.6c-12.8 0-21.333333 4.266667-29.866666 12.8-8.533333 8.533333-12.8 17.066667-12.8 29.866667v486.4c0 12.8 4.266667 21.333333 12.8 29.866666 8.533333 8.533333 17.066667 12.8 29.866666 12.8h247.466667l136.533333-136.533333v-392.533333z"  horiz-adv-x="1024" />

    
    <glyph glyph-name="fujian" unicode="&#59059;" d="M1102.730551 580.934128a280.585338 280.585338 0 0 1-15.731744 86.63234 240.070712 240.070712 0 0 1-228.433532 149.631147 244.23711 244.23711 0 0 1-173.264679-70.900596l-448.965275-441.063487a162.992354 162.992354 0 0 1-31.535321-47.267064 117.305647 117.305647 0 0 1-7.901789-55.168853 133.899404 133.899404 0 0 1 7.901789-55.168853 79.017888 79.017888 0 0 1 31.535321-39.365276 162.992354 162.992354 0 0 1 47.267064-31.53532 134.545914 134.545914 0 0 1 55.168853-7.901789 149.631147 149.631147 0 0 1 102.292248 39.508944l417.501789 401.698211a51.577131 51.577131 0 0 1-31.535321 86.63234c-15.731743-7.901789-23.633532-7.901789-39.365275-15.731744l-409.456331-409.456331a60.340933 60.340933 0 0 0-39.365275-15.731743 50.858786 50.858786 0 0 0-47.267065 47.267064 40.514626 40.514626 0 0 0 15.731744 31.535321l448.965275 441.135321a130.379516 130.379516 0 0 0 102.364083 39.365275 166.296738 166.296738 0 0 0 102.364083-39.365275 112.420905 112.420905 0 0 0 47.267064-94.534128 127.075132 127.075132 0 0 0-47.267064-102.364083l-449.03711-441.566328a281.591021 281.591021 0 0 0-79.017889-55.168853 240.214381 240.214381 0 0 0-181.166468 0 284.105226 284.105226 0 0 0-79.017888 55.168853 226.709505 226.709505 0 0 0-70.900596 165.219222 214.425816 214.425816 0 0 0 70.900596 165.219221l441.063486 448.965275c15.731743 7.901789 15.731743 15.731743 15.731744 31.535321a40.514626 40.514626 0 0 1-15.731744 31.535321 39.365275 39.365275 0 0 1-62.998807 0L102.364083 439.132936A561.529849 561.529849 0 0 1 23.633532 328.867064a347.894213 347.894213 0 0 1 0-252.067064 261.621045 261.621045 0 0 1 79.017889-110.265872 331.875132 331.875132 0 0 1 110.050368-70.900596 359.17222 359.17222 0 0 1 125.997615-23.633532 398.752999 398.752999 0 0 1 133.899403 23.633532 330.797615 330.797615 0 0 1 110.265872 70.900596l448.965275 441.135321a243.446931 243.446931 0 0 1 70.900597 173.264679z m0 0"  horiz-adv-x="1102" />

    
    <glyph glyph-name="xitongguanli" unicode="&#59060;" d="M431.12678594-11.446969960000047a32.97672996 32.97672996 0 0 0 0 65.95346069h130.38585396v65.89261736H202.90591023A65.52756133 65.52756133 0 0 0 137.74340414 186.29172546999996V713.61519514A65.52756133 65.52756133 0 0 0 202.90591023 779.5078125h782.25427955A65.52756133 65.52756133 0 0 0 1050.38353765 713.61519514V186.29172546999996a65.58840388 65.58840388 0 0 0-65.22334789-65.95345993H626.6751452v-65.89261736h130.38585394a32.97672996 32.97672996 0 0 0 0-65.95346068z m-228.16003317 197.73869543h782.19343699v32.97673073H202.90591023z m0 98.86934809h782.19343699V713.61519514H202.90591023z m97.77417925 65.95345991a32.48998884 32.48998884 0 0 0-27.68341717 16.18415188 33.15925836 33.15925836 0 0 0 11.37758019 45.14526552l195.54835925 131.78523551a32.30746044 32.30746044 0 0 0 34.55863995 0l144.74472489-87.97850902 208.32532101 150.64646468a38.3308853 38.3308853 0 0 0 4.56320076 3.28550425 32.36830375 32.36830375 0 0 0 44.6585244-11.56010859 33.09841582 33.09841582 0 0 0-11.43842352-45.14526475L677.29625115 388.65446495a32.42914629 32.42914629 0 0 0-35.53212214 0L496.41097712 476.99802922l-177.66061308-120.28596946a30.84723633 30.84723633 0 0 0-17.644376-5.59752629z"  horiz-adv-x="1181" />

    
    <glyph glyph-name="peizhi" unicode="&#59055;" d="M1003.06205353 466.50957598a106.88137558 106.88137558 0 0 0 0 13.91355175h-6.32434132 6.32434132c-8.22164414 34.1514457-25.92980156 51.85960224-52.49203595 51.85960225h-6.95677676a110.04354668 110.04354668 0 0 0-106.88137559 106.2489419 202.37893594 202.37893594 0 0 0 6.32434219 44.90282637 70.20019337 70.20019337 0 0 1-22.13519677 82.21644316L703.2882544 833.32139824h-29.72440635a68.30289141 68.30289141 0 0 1-49.96229941-22.1351959 179.61130635 179.61130635 0 0 0-88.54078537-51.22716855 178.34643721 178.34643721 0 0 0-87.90834989 50.59473399 53.1244705 53.1244705 0 0 1-44.27039268 22.76763047 39.84335332 39.84335332 0 0 1-31.62170829-7.58921046L251.73025244 759.3265992199999a59.4488127 59.4488127 0 0 1-22.76762959-80.95157403 153.04907021 153.04907021 0 0 0 6.32434131-44.27039267 110.67598037 110.67598037 0 0 0-106.88137559-107.51380927H120.81637812a63.24341748 63.24341748 0 0 1-52.49203593-51.85960313A810.1481792 810.1481792 0 0 1 62 386.82287021c0-30.98927461 3.16217109-63.24341748 6.95677588-94.86512665s25.92980156-51.22716857 52.49203681-51.22716856H125.24341748a110.67598037 110.67598037 0 0 0 107.51381015-106.88137558 201.74650224 201.74650224 0 0 0-6.32434218-44.2703918 70.20019337 70.20019337 0 0 1 25.29736699-81.58400947l112.57328321-63.24341748a38.57848506 38.57848506 0 0 1 29.72440636-7.58920958 68.30289141 68.30289141 0 0 1 49.96230028 22.13519591 139.76795302 139.76795302 0 0 0 88.54078447 51.22716855 179.61130635 179.61130635 0 0 0 88.54078447-51.22716855 67.67045684 67.67045684 0 0 1 49.32986572-22.13519591h3.79460567a54.38933877 54.38933877 0 0 1 27.82710352 7.58920958L825.34805001 11.156969239999967a67.03802227 67.03802227 0 0 1 22.13519677 81.58400859 82.84887685 82.84887685 0 0 0-12.64868349 43.00552441 110.67598037 110.67598037 0 0 0 106.88137557 107.51381017H947.40784647a63.24341748 63.24341748 0 0 1 51.85960226 51.85960224A930.31067286 930.31067286 0 0 1 1010.65126396 386.82287021c0 29.09197178-5.69190762 60.71368096-7.58921043 79.68670577z m-73.99479816-79.68670577a388.94701817 388.94701817 0 0 0-4.42703935-47.43256376v-20.23789307A189.73025244 189.73025244 0 0 1 757.67759316 133.21676573000002a168.8599248 168.8599248 0 0 1 12.01624981-63.2434175l-91.07052188-54.38933964a269.41695908 269.41695908 0 0 1-36.68118223 29.72440635 151.15176826 151.15176826 0 0 1-104.35163818 41.74065527 147.3571626 147.3571626 0 0 1-103.0867708-41.1082207 99.92459971 99.92459971 0 0 1-39.21091875-23.40006503l-89.8056536 48.06499745a167.59505654 167.59505654 0 0 1 12.01624979 63.24341748 189.73025244 189.73025244 0 0 1-169.49235937 185.30321397v20.23789306a388.94701817 388.94701817 0 0 0-3.79460479 47.43256377 379.46050576 379.46050576 0 0 0 3.79460479 47.43256289v20.23789395A189.73025244 189.73025244 0 0 1 314.97366992 640.42897471a180.24374004 180.24374004 0 0 1-11.38381435 63.24341748l97.3948623 48.69743115a333.29281113 333.29281113 0 0 1 36.68118223-30.35684004 167.59505654 167.59505654 0 0 1 104.98407363-41.10822158 199.84919942 199.84919942 0 0 1 97.39486318 34.7838794l36.68118223 36.68118222 90.4380873-45.53526007a189.73025244 189.73025244 0 0 1 154.94637306-252.97367079v-20.23789394a388.94701817 388.94701817 0 0 0 6.95677587-46.80012833zM535.06076327 586.67206963a206.80597529 206.80597529 0 1 1 206.17354162-206.17354161A206.17354161 206.17354161 0 0 1 535.06076327 586.67206963z m2e-8-333.29281114a126.48683497 126.48683497 0 1 0 126.48683582 126.48683585 126.48683497 126.48683497 0 0 0-126.48683582-126.48683585z"  horiz-adv-x="1080" />

    
    <glyph glyph-name="xiaoxixinxiduanxintixingyoujiantongzhisixin" unicode="&#59057;" d="M1080.83713607 725.33333333H329.90380274c-64.17066667 0-102.4-35.90826667-102.4-102.4v-477.86666666c0-67.1744 35.56693333-102.4 102.4-102.4h750.93333332c68.26666667 0 102.4 35.2256 102.40000001 102.4V622.93333333c0 67.92533333-32.69973333 102.4-102.40000001 102.4zM295.77046941 608.8021333300001L520.57260273 384 295.77046941 159.19786667000005V608.8021333300001zM344.03500274 657.06666667h722.67093333L705.37046941 295.73119999999994 344.03500274 657.06666667zM568.83713607 335.73546667000005l111.13813333-111.2064c0.2048-0.2048 0.54613333-0.27306667 0.75093334-0.54613334 0.2048-0.2048 0.27306667-0.47786667 0.47786667-0.68266666C687.89420274 216.6784 696.63233607 213.33333332999996 705.37046941 213.33333332999996s17.47626667 3.34506667 24.1664 9.96693334L841.90380274 335.73546667000005 1066.70593607 110.93333332999998H344.03500274L568.83713607 335.73546667000005zM890.16833608 384L1114.97046941 608.8021333300001v-449.60426666L890.16833608 384z"  horiz-adv-x="1424" />

    
    <glyph glyph-name="yonghu" unicode="&#59058;" d="M661.129382 267.502868v5.873805c138.360739 100.50733 138.360739 289.774379 138.360739 352.428298C799.490121 794.840025 693.108987 896 516.242192 896H508.410453C330.238368 896 224.509879 794.840025 224.509879 625.804971s45.68515-284.553219 139.013384-352.428298v-5.873805C217.330784 243.355003 51.558955 185.922243 51.558955 81.499044c0-139.013384 154.676864-209.499044 460.114723-209.499044s460.767368 70.48566 460.767367 209.499044c0 103.770554-165.771829 161.855959-311.311663 186.003824z m-248.657744-83.53856a44.37986 44.37986 0 0 1 39.811345 44.37986V297.524538a44.37986 44.37986 0 0 1-21.537285 37.85341C351.775653 383.021033 312.616953 478.307202 312.616953 626.457616c0 120.086679 65.2645 180.782664 195.7935 180.782664h15.010834c124.655194 0 187.961759-65.2645 187.96176-180.782664 0-150.760994-36.54812-242.783939-116.17081-290.427023a45.68515 45.68515 0 0 1-21.537285-37.200765v-69.833015a44.37986 44.37986 0 0 1 40.46399-45.032505c176.214149-17.621415 271.500319-80.275335 271.500319-102.465264 0-77.664755-130.528999-120.739324-371.355004-120.739324s-371.355003 43.07457-371.355003 120.739324c-2.61058 22.18993 92.67559 84.84385 269.542384 102.465264z"  horiz-adv-x="1024" />

    
    <glyph glyph-name="faduanxin" unicode="&#59056;" d="M1269.824833 896H123.272599A126.064017 126.064017 0 0 1 0.360183 768.045023v-767.639817a126.064017 126.064017 0 0 1 122.912416-128.045023h1146.552234a126.064017 126.064017 0 0 1 123.092508 128.045023V768.405206A126.064017 126.064017 0 0 1 1269.824833 896z m0-102.381991a17.288779 17.288779 0 0 0 10.53535-4.322195l0.900457-0.720366-585.297221-405.205768-585.297221 405.205768 0.900457 0.720366a17.288779 17.288779 0 0 0 10.53535 4.322195z m0-819.41611H123.272599a23.772072 23.772072 0 0 0-20.44038 25.572987V669.985227l564.766796-391.518818a51.145973 51.145973 0 0 1 58.349631 0l564.67675 391.518818v-669.580021a23.772072 23.772072 0 0 0-20.800563-26.023215z"  horiz-adv-x="1392" />

    
    <glyph glyph-name="_zhongzhi1" unicode="&#59054;" d="M496.65243 837.806074L366.413715 893.311004h-0.60883a41.806273 41.806273 0 0 1-14.053807 2.435317 41.349651 41.349651 0 0 1-18.112669-78.488233l28.868651-12.024376-17.300896-6.747858a448.757866 448.757866 0 0 1 46.524699-850.88956 39.878313 39.878313 0 0 1 10.603775-1.471337v-15.220731h0.507358v15.220731a41.298915 41.298915 0 0 1 10.147153 81.177228 366.160036 366.160036 0 0 0-21.81638 700.153595l16.18471 5.428727-20.294307-47.488679a41.60333 41.60333 0 0 1-3.348561-16.438389 42.820988 42.820988 0 0 1 41.349651-40.9945h0.862508a38.051826 38.051826 0 0 1 37.544468 25.367884l55.809345 130.54313a41.806273 41.806273 0 0 1-22.628153 53.932121zM644.090571 826.847149a41.349651 41.349651 0 1 1-23.795075-79.198534 366.160036 366.160036 0 0 0 49.162959-682.70049l-22.475945-10.147154 19.17812 31.811326a41.298915 41.298915 0 0 1-35.058415 63.013824 40.943765 40.943765 0 0 1-35.515038-19.685478l-74.175692-120.446712-0.304415-0.405887a41.400386 41.400386 0 0 1 13.749393-56.570381l120.59892-74.277164a61.542486 61.542486 0 0 1 19.939157-5.936084h1.217658c9.386117 0 30.441461 6.139028 38.711391 20.294307a41.248179 41.248179 0 0 1-15.22073 56.316702l-39.32022 23.642868 14.561165 5.580934a448.757866 448.757866 0 0 1-31.253233 848.707923z"  horiz-adv-x="1024" />

    
    <glyph glyph-name="zhuxiao" unicode="&#59052;" d="M511.972699 371.524675A50.528104 50.528104 0 0 1 543.952512 384.3166a42.852949 42.852949 0 0 1 12.791925 34.538198V848.663481A42.852949 42.852949 0 0 1 545.231704 883.201679a49.248912 49.248912 0 0 1-33.898601 12.791925 44.132142 44.132142 0 0 1-31.340217-12.791925 47.330123 47.330123 0 0 1-14.071117-33.259005v-430.44828a45.411334 45.411334 0 0 1 46.05093-47.969719zM978.238369 466.184921h-8.954348 8.954348a472.022036 472.022036 0 0 1-37.736179 106.172978 575.636629 575.636629 0 0 1-63.959626 94.660246 497.605886 497.605886 0 0 1-89.543475 77.391147l-6.395963 4.477173a40.93416 40.93416 0 0 1-27.502639 6.395963 44.132142 44.132142 0 0 1-30.70062-18.548291 46.690527 46.690527 0 0 1-7.675155-34.538198 42.852949 42.852949 0 0 1 18.548291-29.421428 383.757753 383.757753 0 0 0 123.442077-139.431983 393.351697 393.351697 0 0 0 43.492546-178.447356 373.524213 373.524213 0 0 0-31.340217-150.944716 387.59533 387.59533 0 0 0-206.58959-205.949994 383.757753 383.757753 0 0 0-507.19983 205.949994 372.884617 372.884617 0 0 0-30.061024 151.584313A383.757753 383.757753 0 0 0 281.718047 663.820164a43.492545 43.492545 0 0 1 19.187888 27.502638 42.852949 42.852949 0 0 1-7.675155 33.259006 48.609315 48.609315 0 0 1-30.70062 19.187887 46.05093 46.05093 0 0 1-34.538198-8.314751 525.748121 525.748121 0 0 1-83.147513-75.472358 447.717378 447.717378 0 0 1-63.959626-92.101861A527.66691 527.66691 0 0 1 45.067433 464.266132a478.417999 478.417999 0 0 1 24.304658-298.691451A467.544862 467.544862 0 0 1 172.986684 13.350772a496.96629 496.96629 0 0 1 152.863505-103.614593 479.697191 479.697191 0 0 1 628.083522 255.838502 447.717378 447.717378 0 0 1 38.375775 186.762106 456.671726 456.671726 0 0 1-14.071117 113.848134z"  horiz-adv-x="1024" />

    
    <glyph glyph-name="mingxi" unicode="&#59053;" d="M960.799-99.595c-9.942 0-19.884 4.26-26.985 11.362l-66.752 66.752-2.84-1.42c-28.405-12.783-56.81-19.884-88.056-19.884-72.432 0-140.604 38.347-178.951 100.838-55.39 92.316-31.246 208.776 53.97 272.688 35.506 26.984 79.533 41.187 123.561 41.187 58.23 0 113.62-24.144 153.387-66.752 72.433-78.114 73.853-198.835 2.84-278.369l-2.84-2.84 58.23-58.23c9.942-9.942 14.203-24.145 9.942-36.927-2.84-12.782-14.202-24.144-26.985-26.985-1.42-1.42-5.68-1.42-8.521-1.42z m-184.633 397.67c-72.432 0-132.083-59.65-132.083-132.083 0-72.433 59.65-132.084 132.083-132.084s132.084 59.65 132.084 132.084c0 72.432-58.23 132.083-132.084 132.083zM612.838 458.563H235.05c-21.303 0-36.926-24.144-38.346-44.028 0-19.883 15.622-44.027 38.346-44.027h382.047c19.884 2.84 34.086 25.564 34.086 44.027-1.42 19.884-17.043 44.028-38.346 44.028zM242.153 266.83c-21.304 0-36.927-24.144-38.347-44.027 0-19.884 15.623-44.028 38.347-44.028H399.8c21.304 0 36.927 24.144 38.347 44.028 0 19.883-15.623 44.027-38.347 44.027H242.153z m-5.681 285.47h382.047c19.883 2.841 34.086 25.565 34.086 44.028 0 19.884-15.623 44.028-38.347 44.028H235.051c-21.303 0-36.926-24.144-38.346-44.028 1.42-19.883 17.043-42.607 39.767-44.027zM857.12 896H107.23C51.839 891.74 9.232 847.712 9.232 793.742v-819.484c0-56.81 44.027-102.258 99.417-102.258h457.32v83.795H118.591c-14.203 0-25.565 12.782-26.985 26.984V782.38c0 15.623 11.362 26.985 25.565 26.985h724.327c14.202 0 25.564-12.782 26.985-26.985v-338.02c-4.261-1.42 85.215-1.42 86.635 0V793.743C956.538 849.132 911.09 896 857.12 896z"  horiz-adv-x="1024" />

    
    <glyph glyph-name="biaocefenpei" unicode="&#59051;" d="M175.321212-121.104377A84.264512 84.264512 0 0 0 91.125657-36.908822V804.908822A84.264512 84.264512 0 0 0 175.321212 889.104377h673.426532a84.057643 84.057643 0 0 0 84.057643-84.195555v-841.817644a84.195556 84.195556 0 0 0-84.195555-84.195555z m0 84.195555h673.426532V804.908822H175.321212z m391.188687 180.66532a42.0633 42.0633 0 0 0 0 59.509226l33.374815 33.374815H322.611717a42.0633 42.0633 0 0 0-42.063299 42.063299 42.132256 42.132256 0 0 0 42.063299 42.201213h378.845522a42.132256 42.132256 0 0 0 38.891313-26.065455 42.0633 42.0633 0 0 0-9.102222-45.855892l-105.227205-105.227206a41.994343 41.994343 0 0 0-29.720135-12.343165 41.994343 41.994343 0 0 0-29.789091 12.343165z m-243.898182 303.407408a42.132256 42.132256 0 0 0-38.891313 26.065454 42.132256 42.132256 0 0 0 9.171178 45.855893L397.980875 624.174545a42.0633 42.0633 0 0 0 59.509226 0 41.925387 41.925387 0 0 0 0-59.440269l-33.305859-33.374815h277.204041a42.0633 42.0633 0 0 0 42.063299-42.063299 42.132256 42.132256 0 0 0-42.063299-42.201213z"  horiz-adv-x="1024" />

    
    <glyph glyph-name="biangeng" unicode="&#59050;" d="M597.512914 469.317008a85.317008 85.317008 0 0 1 0-170.634016h476.834895L793.418787 17.656017A85.317008 85.317008 0 0 1 913.704993-103.119954l426.682992 426.682992a85.317008 85.317008 0 0 1 0 120.678018L913.704993 870.924048A85.317008 85.317008 0 0 1 793.418787 750.343983l281.026975-281.026975zM85.317008 298.487086A85.317008 85.317008 0 1 1 0 384a85.317008 85.317008 0 0 1 85.317008-85.317008z m255.951023 0a85.317008 85.317008 0 1 1-85.317007 85.317008 85.317008 85.317008 0 0 1 85.317007-85.317008z"  horiz-adv-x="1365" />

    
    <glyph glyph-name="shenhebutongguo" unicode="&#59049;" d="M512.028443-128a512.540414 512.540414 0 0 0-511.971557 511.971557 512.5973 512.5973 0 0 0 511.971557 511.971557 512.5973 512.5973 0 0 0 511.971557-511.971557 512.540414 512.540414 0 0 0-511.971557-511.971557z m19.739348 441.091939l183.740903-183.684017a36.065552 36.065552 0 0 1 26.224321-11.377146 35.667352 35.667352 0 0 1 9.101716 1.1946 35.838009 35.838009 0 0 1 25.883007 26.053664 36.065552 36.065552 0 0 1-10.068774 35.326037l-183.797789 183.684018 185.276818 185.447475a31.059608 31.059608 0 0 1 9.044831 22.299206 39.137381 39.137381 0 0 1-11.661575 27.248264 38.682295 38.682295 0 0 1-27.020721 11.377145 31.116494 31.116494 0 0 1-22.356091-9.101716l-185.447475-185.276818-183.627132 183.684018a36.634409 36.634409 0 0 1-26.50875 11.377145 37.203266 37.203266 0 0 1-8.817287-1.137714 36.463752 36.463752 0 0 1-26.053664-26.053664 36.634409 36.634409 0 0 1 10.239431-35.496695L479.546692 364.971724l-185.276818-185.447475a31.230265 31.230265 0 0 1-9.101717-22.356092 38.454753 38.454753 0 0 1 11.661575-27.077606 38.340981 38.340981 0 0 1 27.020721-11.377146 31.116494 31.116494 0 0 1 22.356091 8.987945l185.390589 185.276818z"  horiz-adv-x="1024" />

    
    <glyph glyph-name="yishenhe" unicode="&#59048;" d="M511.943117-127.943117a512.511943 512.511943 0 0 0-511.943117 511.943117 512.568826 512.568826 0 0 0 511.943117 511.943117 512.568826 512.568826 0 0 0 511.943118-511.943117 512.511943 512.511943 0 0 0-511.943118-511.943117zM254.947672 405.672259a7.792912 7.792912 0 0 1-6.143317-2.957894l-19.624486-24.175092a8.247972 8.247972 0 0 1 0.682591-10.693922l172.752361-168.941229a15.073881 15.073881 0 0 1 10.523275-4.323075 14.505055 14.505055 0 0 1 10.18198 4.152427l384.526163 376.335074a7.110321 7.110321 0 0 1 2.104655 5.233196 6.655261 6.655261 0 0 1-2.104655 4.891901l-13.139873 13.026108a7.736029 7.736029 0 0 1-5.688257 2.218421 8.361738 8.361738 0 0 1-5.119431-1.706478l-359.839129-285.891789a20.193312 20.193312 0 0 0-12.514165-3.98178 19.453838 19.453838 0 0 0-10.63704 2.957893L259.156983 404.36396a7.622264 7.622264 0 0 1-4.209311 1.251416z"  horiz-adv-x="1024" />

    
    <glyph glyph-name="gongzuotai" unicode="&#59047;" d="M795.0594623-65.99798027999998H637.54298721a134.62946631 134.62946631 0 0 0-134.62946632 134.62946544V225.47481387000005a134.62946631 134.62946631 0 0 0 134.62946632 134.62946543h10.09720986a124.53225644 124.53225644 0 0 0-26.252746 20.19441973L509.64499443 492.04115654a193.19328369 193.19328369 0 0 0-20.86756787 26.92589327v-13.46294708a134.62946631 134.62946631 0 0 0-134.62946543-134.6294663H196.63148516a134.62946631 134.62946631 0 0 0-134.62946544 134.6294663V666.38631503a134.62946631 134.62946631 0 0 0 39.04254493 95.58692052A134.62946631 134.62946631 0 0 0 196.63148516 801.01578047h158.18962323a134.62946631 134.62946631 0 0 0 134.62946544-134.62946543v-10.77035713a155.4970333 155.4970333 0 0 0 20.86756787 26.25274512L621.38745107 794.28430781A134.62946631 134.62946631 0 0 0 716.30122432 834a134.62946631 134.62946631 0 0 0 94.91377412-39.04254492l111.74245664-111.74245664a134.62946631 134.62946631 0 0 0 0-190.50069463l-111.06930938-111.74245664a151.45814971 151.45814971 0 0 0-26.25274599-20.19442061h10.09720987a134.62946631 134.62946631 0 0 0 134.6294663-134.62946543v-156.84332871a134.62946631 134.62946631 0 0 0-135.30261357-135.3026127zM716.30122432 281.34604219000005H638.88928174a54.52493379 54.52493379 0 0 1-55.19808106-53.85178653v-156.84332783a53.85178653 53.85178653 0 0 1 53.85178653-53.85178652h157.5164751a53.85178653 53.85178653 0 0 1 53.85178652 53.85178652v154.82388604a53.85178653 53.85178653 0 0 1-53.85178653 54.5249329z m-37.02310313 156.84332783a53.17863925 53.17863925 0 0 1 37.02310313-14.8092416 53.17863925 53.17863925 0 0 1 38.36939766 14.8092416L869.77881582 549.2586794a55.87122833 55.87122833 0 0 1 15.48238887 38.36939765 53.17863925 53.17863925 0 0 1-15.48238886 38.36939766l-115.10819385 111.06930937a51.15919746 51.15919746 0 0 1-38.36939766 16.15553613 61.92955459 61.92955459 0 0 1-37.69625039-16.15553613L566.86251729 625.99747471a54.52493379 54.52493379 0 0 1 0-76.73879531zM196.63148516 720.23810156a55.19808106 55.19808106 0 0 1-38.36939766-12.7897998 53.17863925 53.17863925 0 0 1-15.48238799-38.36939765v-163.57480138a53.85178653 53.85178653 0 0 1 53.85178565-53.85178652h157.51647598a53.85178653 53.85178653 0 0 1 53.85178563 53.85178652v161.55535958a53.17863925 53.17863925 0 0 1-53.17863838 53.17863925H196.63148516z m157.51647598-786.23608184H196.63148516a134.62946631 134.62946631 0 0 0-134.62946544 134.62946544V225.47481387000005a134.62946631 134.62946631 0 0 0 134.62946544 134.62946543h152.80444424a134.62946631 134.62946631 0 0 0 139.34149716-134.62946544v-156.8433287a134.62946631 134.62946631 0 0 0-134.62946542-134.62946544zM223.55737842 279.99974678H196.63148516a53.85178653 53.85178653 0 0 1-54.5249338-53.85178564v-156.84332872a53.85178653 53.85178653 0 0 1 53.85178653-53.85178565h158.18962324a53.85178653 53.85178653 0 0 1 53.85178564 53.85178565V225.47481387000005a52.50549199 52.50549199 0 0 1-58.56381737 54.52493291z"  horiz-adv-x="1024" />

    
    <glyph glyph-name="yuanbingtubiao" unicode="&#59046;" d="M910.430123 388.373042H526.039059V676.66634 781.662047a46.862491 46.862491 0 0 1-11.863922 34.99857 46.862491 46.862491 0 0 1-32.625785 9.491137c-26.100628 0-51.60806-4.152373-77.115491-7.711549a474.55687 474.55687 0 0 1-392.102614-538.622047 479.302438 479.302438 0 0 1 474.55687-406.932516H481.549352a420.576026 420.576026 0 0 1 54.57404 0 481.675223 481.675223 0 0 1 422.948811 459.726967 55.167236 55.167236 0 0 1-10.67753 41.523726 55.167236 55.167236 0 0 1-37.96455 14.236707zM84.107974 373.543139a395.66179 395.66179 0 0 0 363.629201 372.527143V361.679218c0-41.523726 11.863922-53.387648 53.980844-53.387648h379.645496A401.000555 401.000555 0 0 0 470.278627-53.558043h-9.491138A402.780143 402.780143 0 0 0 84.107974 373.543139zM1006.52789 539.638044A433.033144 433.033144 0 0 1 600.18857 895.555696a52.201256 52.201256 0 0 1-39.744138-11.270726 50.421667 50.421667 0 0 1-12.457118-38.557745v-386.763849c0-38.557746 23.727843-46.269295 43.303315-46.269295h380.238691a41.523726 41.523726 0 0 1 32.625785 11.863922 39.744138 39.744138 0 0 1 11.270726 32.625785A644.804147 644.804147 0 0 1 1006.52789 539.638044z m-65.844766-47.455687h-313.207534V818.440205a355.917652 355.917652 0 0 0 313.207534-325.664652z"  horiz-adv-x="1024" />

    
    <glyph glyph-name="wodegongzuotai-shenhehuanjie" unicode="&#59045;" d="M892.89697 21.721212h344.436363v-148.945454l345.212122 204.8-345.212122 213.333333v-143.515152h-290.133333l-103.175758 155.151516-72.145454-108.606061zM0-17.066667V187.733333m38.787879-166.787878h507.345454l401.066667 599.660606h290.133333v-142.739394l348.315152 213.333333L1241.987879 896l-4.654546-149.721212h-343.660606L480.969697 149.721212H38.787879z m0 600.436363h442.957576l110.157575-155.151515 67.490909 109.381818-113.260606 171.442424H38.012121z"  horiz-adv-x="1587" />

    
    <glyph glyph-name="shoufeichaxun-piaojudayin" unicode="&#59043;" d="M953.936842 617.094737h-166.4a38.4 38.4 0 0 1-37.726316-38.4 37.726316 37.726316 0 0 1 37.726316-37.726316h166.4a38.4 38.4 0 0 1 0 76.126316zM1064.421053 737.684211h-198.063158V828.631579a67.368421 67.368421 0 0 1-67.368421 67.368421h-471.578948a67.368421 67.368421 0 0 1-67.368421-67.368421v-90.947368H67.368421a67.368421 67.368421 0 0 1-67.368421-67.368422v-471.578947a67.368421 67.368421 0 0 1 67.368421-67.368421h196.042105v-192a67.368421 67.368421 0 0 1 67.368421-67.368421h471.578948a67.368421 67.368421 0 0 1 67.368421 67.368421v196.71579h194.694737a67.368421 67.368421 0 0 1 67.368421 67.368421v471.578947a67.368421 67.368421 0 0 1-67.368421 62.652632z m-273.51579-417.010527v-371.2H336.842105V320.673684zM336.842105 738.357895V819.873684h451.368421v-81.515789z m527.494737-417.684211h93.642105a37.726316 37.726316 0 0 1 0 75.452632H169.768421a37.726316 37.726316 0 0 1 0-75.452632h93.642105v-108.463158H75.452632V662.231579h979.536842v-450.021053h-187.957895z"  horiz-adv-x="1134" />

    
    <glyph glyph-name="shoufeichaxun-piaojuchonghong" unicode="&#59044;" d="M391.761958 79.584672l-4.430161 18.353523-12.024722-15.189122c-8.227441-10.758962-16.454883-23.416564-24.049443-35.441286l-6.961681-12.657602a224.672435 224.672435 0 0 0-13.290483-24.049443 92.400494 92.400494 0 0 0-20.252163 32.276885c-15.822002 35.441286-32.276885 71.515451-72.148331 72.148331s-63.28801-37.972806-85.438813-72.781211a147.461063 147.461063 0 0 0-26.580964-36.074166 8.227441 8.227441 0 0 0-7.594562 0 46.833127 46.833127 0 0 0-16.454882 34.808405V787.777503a26.580964 26.580964 0 0 0 8.227441 20.885043 27.846724 27.846724 0 0 0 20.885043 9.493202h648.702102a30.378245 30.378245 0 0 0 29.112484-31.644005v-316.44005h6.328801a275.935723 275.935723 0 0 0 53.794809-24.682323l14.556242-8.227442V787.144623A105.690977 105.690977 0 0 1 780.350339 896H131.648237A106.956737 106.956737 0 0 1 27.855901 787.144623v-746.165637a126.57602 126.57602 0 0 1 48.731768-97.463535 77.844252 77.844252 0 0 1 46.833127-15.189122 75.945612 75.945612 0 0 1 34.808405 8.227441 162.650185 162.650185 0 0 1 56.959209 63.28801l6.961681 10.126082a126.57602 126.57602 0 0 0 13.923363 22.783683 79.742892 79.742892 0 0 0 8.227441-16.454882 70.882571 70.882571 0 0 1 6.328801-13.923363c18.986403-34.175525 37.972806-69.616811 74.679852-70.882571 39.871446 0 63.28801 40.504326 85.438813 72.781212l6.961681 5.695921v4.43016a373.399258 373.399258 0 0 0-25.948084 65.18665zM549.349103 468.173053a37.339926 37.339926 0 0 1-37.339926 37.339926H232.909053a37.972806 37.972806 0 0 1-37.339926-37.972806 37.339926 37.339926 0 0 1 37.339926-37.339926h279.100124a37.339926 37.339926 0 0 1 37.339926 37.972806zM195.569127 300.459827a37.339926 37.339926 0 0 1 10.758962-26.580964 36.707046 36.707046 0 0 1 25.948084-10.758962h165.814586v6.328801a383.52534 383.52534 0 0 0 27.213844 56.959209l8.227441 13.923362H232.909053a36.707046 36.707046 0 0 1-37.339926-39.871446zM707.569127 449.81953a288.593325 288.593325 0 0 1 0-577.18665 289.226205 289.226205 0 0 1 0 577.81953zM534.15998 36.548826a213.913473 213.913473 0 0 0 174.042027 337.957973 214.546354 214.546354 0 0 0 126.57602-39.871447z m350.615575 244.291718a215.179234 215.179234 0 0 0-6.328801-249.354759 214.546354 214.546354 0 0 0-290.491965-47.466007zM716.429449 635.253399a36.707046 36.707046 0 0 1-37.339926 37.339926h-443.016069a36.707046 36.707046 0 0 1-37.339926-37.339926 37.339926 37.339926 0 0 1 37.339926-37.339926h443.016069a37.339926 37.339926 0 0 1 37.339926 37.339926z"  horiz-adv-x="1024" />

    
    <glyph glyph-name="biaoceshezhi-qingkong" unicode="&#59042;" d="M912.182723 514.967269h-264.491923V846.841657A52.268642 52.268642 0 0 1 593.53293 895.961586H431.689063a52.898385 52.898385 0 0 1-53.528127-49.749671v-331.244646H112.409528a50.379414 50.379414 0 0 1-49.119928-49.749671v-544.727412a48.490186 48.490186 0 0 1 14.484081-32.116877 47.2307 47.2307 0 0 1 34.635847-14.484081h799.773195a49.119928 49.119928 0 0 1 49.119928 49.749671V465.84734a49.749671 49.749671 0 0 1-49.119928 49.119929z m-399.886597-397.997369a35.895332 35.895332 0 0 1-35.26559-35.26559v-143.581329H326.522037v100.758827a35.895332 35.895332 0 0 1-6.297427 26.449192 35.26559 35.26559 0 0 1-22.670736 11.965111 37.154818 37.154818 0 0 1-27.078935-6.297426 32.746619 32.746619 0 0 1-14.484081-22.670737 34.006104 34.006104 0 0 1 0-11.335368v-102.018313h-125.948535v251.897069h764.507605v-251.897069h-125.948535v100.758828a35.26559 35.26559 0 0 1-5.667684 26.449192 36.525075 36.525075 0 0 1-23.300479 15.113824 35.895332 35.895332 0 0 1-26.449192-6.297426 35.26559 35.26559 0 0 1-15.113824-22.670737 34.006104 34.006104 0 0 1 0-11.335368v-102.018313H548.191458v146.730043a35.895332 35.895332 0 0 1-35.895332 35.26559z m382.253802 331.244645v-195.220228H129.412581v195.220228h311.722623V829.838605H579.048849v-381.62406z"  horiz-adv-x="1024" />

    
    <glyph glyph-name="biaoceshezhi-biaoceyonghu" unicode="&#59041;" d="M511.883684 384.059883a256 256 0 1 1-256 256 256 256 0 0 1 256-256z m0 433.193918a177.193918 177.193918 0 1 0-177.193919-177.193918 177.193918 177.193918 0 0 0 177.193919 177.193918z m98.447719-472.596959H413.435964A354.807018 354.807018 0 0 1 58.988245-9.790877a118.269006 118.269006 0 0 1 118.14924-118.14924h669.672046a118.269006 118.269006 0 0 1 118.14924 118.14924 354.807018 354.807018 0 0 1-354.507602 354.447719z m236.478128-393.790877H177.137485a39.403041 39.403041 0 0 0-39.403041 39.403041 275.941053 275.941053 0 0 0 275.461988 275.461988h196.895439a275.941053 275.941053 0 0 0 275.461988-275.461988 39.403041 39.403041 0 0 0-39.403041-39.403041z"  horiz-adv-x="1024" />

    
    <glyph glyph-name="suoyoubiaogelideshanchu" unicode="&#59040;" d="M275.942459-128a145.54998 145.54998 0 0 0-145.608504 144.964737V652.187689H41.786661a36.694748 36.694748 0 0 0-36.636223 36.577699 36.636223 36.636223 0 0 0 36.636223 36.636224h288.758987a181.776533 181.776533 0 0 0 181.425388 170.539864 181.893582 181.893582 0 0 0 181.425387-170.539864h288.583414a36.519175 36.519175 0 0 0 36.753272-36.460651 36.694748 36.694748 0 0 0-36.636223-36.577699h-88.547294V16.964737a145.54998 145.54998 0 0 0-145.608504-144.964737z m-72.570155 144.964737a72.160485 72.160485 0 0 1 72.570155-71.926388h471.647483a72.336058 72.336058 0 0 1 72.394582 71.926388V652.363262H203.372304zM403.583998 725.401612h216.188832a108.796708 108.796708 0 0 1-107.977367 97.501514 108.855232 108.855232 0 0 1-108.211465-97.501514z m235.326284-579.800423V483.754701a36.694748 36.694748 0 0 0 36.636224 36.577699 36.694748 36.694748 0 0 0 36.636223-36.577699v-338.153512a36.753272 36.753272 0 0 0-36.636223-36.636224 36.753272 36.753272 0 0 0-36.636224 36.636224z m-164.745956 0V483.754701a36.577699 36.577699 0 0 0 36.636223 36.577699 36.694748 36.694748 0 0 0 36.636224-36.577699v-338.153512a36.753272 36.753272 0 0 0-36.636224-36.636224 36.636223 36.636223 0 0 0-36.636223 36.636224z m-164.92153 0V483.754701a36.694748 36.694748 0 0 0 36.636224 36.577699 36.577699 36.577699 0 0 0 36.636223-36.577699v-338.153512a36.636223 36.636223 0 0 0-36.636223-36.636224 36.753272 36.753272 0 0 0-36.636224 36.636224z"  horiz-adv-x="1024" />

    
    <glyph glyph-name="suoyoubiaogelidebianji" unicode="&#59039;" d="M992.738108 614.53899L278.533355-99.600776l-278.468368-28.399224 28.399224 278.338395 620.948718 621.078691L742.603977 864.608134a113.531911 113.531911 0 0 0 156.748123 0l93.386008-93.191048a110.997427 110.997427 0 0 0 0-156.878096zM100.924475-27.270485l136.472246 13.972158 566.879714 566.489794-122.954995 122.825021-566.55478-566.55478zM821.043025 806.639923a21.445639 21.445639 0 0 1-14.816986-6.043771l-61.347524-61.347524L867.573562 616.553581l61.347524 61.347524a20.795771 20.795771 0 0 1 6.498678 14.816986 20.990731 20.990731 0 0 1-6.498678 14.816987l-93.061074 93.061074a21.185691 21.185691 0 0 1-14.816987 6.043771z m0 0"  horiz-adv-x="1024" />

    
    <glyph glyph-name="xianjinjiaofei-lishijilu" unicode="&#59038;" d="M512-25.526805a409.587801 409.587801 0 1 1-409.587801 409.587801 409.465809 409.465809 0 0 1 409.587801-409.587801z m0-102.473195a512 512 0 1 0 512 512 511.939004 511.939004 0 0 0-512-512z m0 716.885394a51.114606 51.114606 0 1 1-102.229211 0v-256.182988a51.480581 51.480581 0 0 1 51.297593-51.297593h256.182988a51.114606 51.114606 0 0 1 0 102.229211H512.182988V588.885394z m0 0"  horiz-adv-x="1024" />

    
    <glyph glyph-name="chaobiaojihua-guanbishujubulu" unicode="&#58997;" d="M1290.82352835-11.5078125h-672.45176144a395.86173483 395.86173483 0 0 0-395.21287723 395.21287721 395.80274778 395.80274778 0 0 0 395.21287723 395.21287801h672.45176144a395.80274778 395.80274778 0 0 0 395.21287799-395.21287801 395.86173483 395.86173483 0 0 0-395.21287799-395.21287721zM641.96656566 739.6915898899999a356.28145967 356.28145967 0 0 1-355.92753811-355.75057694 356.28145967 356.28145967 0 0 1 355.92753811-355.86855106 356.22247261 356.22247261 0 0 1 355.75057695 355.86855106A356.16348556 356.16348556 0 0 1 641.96656566 739.92753811z"  horiz-adv-x="1894" />

    
    <glyph glyph-name="chaobiaojihua-kaiqishujubulu" unicode="&#58998;" d="M1293.29341376-11.5078125H621.30467225a395.83221697 395.83221697 0 0 0-395.1834088 395.47832091 395.77323455 395.77323455 0 0 0 395.1834088 395.1834088h671.98874152a395.83221697 395.83221697 0 0 0 395.18340803-395.1834088 395.95018181 395.95018181 0 0 0-395.18340803-395.47832091z m0 751.26135343a356.19591101 356.19591101 0 0 1-355.84201494-355.78303252 356.25489344 356.25489344 0 0 1 355.84201494-355.84201497 356.25489344 356.25489344 0 0 1 355.84201497 355.84201497A356.19591101 356.19591101 0 0 1 1293.29341376 739.9894713900001z"  horiz-adv-x="1893" />

    
    <glyph glyph-name="chaobiaojihua-zhangdanxiangqing" unicode="&#59037;" d="M614.61304323 496.79746777l-138.93606109 161.82073605h-123.81447323l187.0694105-230.5548497h-123.87384939v-87.41688998h139.55329695v-35.69887781H415.05807002v-87.41965167h139.55329695v-104.43437227l110.58877982-0.33416348v104.76853575h139.55467778v87.41965167H665.20014679v35.69887781h141.05841343v87.41688998h-124.62364595l181.05032536 231.89012277h-124.19834699zM900.15849789 899.52797886h-690.42041152c-23.24093189 0-44.25594838-9.27925033-61.50541195-24.42155081-17.45244717-15.32042894-25.24729361-37.2343728-27.95097995-59.56671141-0.86026382-7.10304519-0.29688078-14.59410666-0.29688076-21.72062616v-103.72600094c0-18.81809873 15.70292185-34.52102059 34.52102057-34.52102056h51.14220156c2.65673775 0 5.29690539 0.00414253 7.95226229-0.13256073 7.18313396-0.37144618-8.66339533 1.53273331-1.6777216 0.19607938 1.82823325-0.34935274 3.61504127-0.88511897 5.3949451-1.41674267 2.41232893-0.72217975 8.31818512-3.61504127-1.41536183 0.79260263 2.21072615-1.0011096 4.29579581-2.25353221 6.35186777-3.53495252 2.11682898-1.32008382 6.93320177-5.58412029-1.18476143 1.08672175 1.39464923-1.14609788 2.67468867-2.42475649 3.94920477-3.70065342 1.68738749-1.68738749 5.78986557-6.98981625-0.72494144 1.48578472 1.10467265-1.43745531 2.06435703-2.97709281 3.02127972-4.51396865 0.96244605-1.54654172 1.77023793-3.18145726 2.57526814-4.81223026-4.5733448 9.26958444-1.65424731 3.97820242-0.79260263 1.41536184 0.59376157-1.76333373 1.00663296-3.58190109 1.41674268-5.39494508 1.33941561-5.90033284-0.59099987 9.31653303-0.09665885-0.24440883 0.10080139-1.93317715 0-3.87049682-0.09942054-5.80091231-0.37144618-7.18313396 1.53273331 8.66339533 0.19607939 1.6777216-0.61171248-3.19802734-5.46122545-14.66038702-0.62552089-3.97820241-1.49959314-3.31125629-3.48248054-6.38086544-5.59654787-9.32481807 6.04532112 8.42036734 2.47584758 3.35406236 0.72494145 1.48578472-1.76471457-1.88346689-8.68686962-7.39026009 0.20850696-0.55095548-2.88319564-2.21624951-6.07293794-3.99339166-9.32481808-5.59654785 10.27207489 5.06768583-0.59514239 0.1422266-3.97820242-0.6255209-6.93734429-1.57415854 8.84290463 0.81469609 1.6777216 0.19607938-1.18199975-0.10218222-2.72439893-0.13256073-3.90639867-0.1325607h-55.18806518c-18.81809873 0-34.52102059-15.70292185-34.52102057-34.52102057v-138.03575288c0-18.81809873 15.70292185-34.52102059 34.52102057-34.52102058h51.14220156c2.65673775 0 5.29690539 0.00414253 7.95226229-0.13256073 7.18313396-0.37144618-8.66339533 1.53273331-1.6777216 0.1960794 1.82823325-0.34935274 3.61504127-0.88511897 5.3949451-1.41674269 2.41232893-0.72217975 8.31818512-3.61504127-1.41536183 0.79260264 2.21072615-1.0011096 4.29579581-2.25215137 6.35186777-3.53357167 2.11682898-1.32008382 6.93320177-5.58550113-1.18476143 1.08672174 1.39464923-1.14747872 2.67468867-2.42613731 3.94920477-3.70203426 1.68738749-1.68738749 5.78986557-6.98981625-0.72494144 1.48440388 1.10467265-1.43607446 2.06435703-2.97709281 3.02127972-4.51396864 0.96244605-1.54516087 1.77023793-3.18145726 2.57526814-4.81084942-4.5733448 9.26958444-1.65424731 3.97820242-0.79260263 1.41536183 0.59376157-1.76333373 1.00663296-3.58328194 1.41674268-5.39494508 1.33941561-5.90033284-0.59099987 9.31653303-0.09665885-0.24440883 0.10080139-1.93317715 0-3.87049682-0.09942054-5.79953147-0.37144618-7.18313396 1.53273331 8.66339533 0.19607939 1.6777216-0.61171248-3.19802734-5.46122545-14.66038702-0.62552089-3.97820241-1.49959314-3.31263713-3.48248054-6.38086544-5.59654787-9.32619892 6.04532112 8.42036734 2.47584758 3.35406236 0.72494145 1.48578473-1.76471457-1.88346689-8.68686962-7.39026009 0.20850696-0.55095548-2.88319564-2.21624951-6.07293794-3.99339166-9.32481808-5.59792869 10.27207489 5.06906666-0.59514239 0.14360745-3.97820242-0.62414007-6.93734429-1.57553938 8.84290463 0.81469609 1.6777216 0.19746025-1.18199975-0.10218222-2.72439893-0.13394157-3.90639867-0.13394156h-55.18806518c-18.81809873 0-34.52102059-15.70292185-34.52102057-34.52102058v-137.74715714c0-18.81809873 15.70292185-34.52102059 34.52102057-34.52102058h51.14220156c2.65673775 0 5.29690539 0.00414253 7.95226229-0.13394157 7.18313396-0.37144618-8.66339533 1.53273331-1.6777216 0.19746025 1.82823325-0.34935274 3.61504127-0.88511897 5.3949451-1.41674268 2.41232893-0.72217975 8.31818512-3.61504127-1.41536183 0.79260262 2.21072615-1.0011096 4.29579581-2.25353221 6.35186777-3.5349525 2.11682898-1.32008382 6.93320177-5.58550113-1.18476143 1.08672172 1.39464923-1.14747872 2.67468867-2.42613731 3.94920477-3.70203424 1.68738749-1.68738749 5.78986557-6.98981625-0.72494144 1.48578472 1.10467265-1.43745531 2.06435703-2.97709281 3.02127972-4.51396865 0.96244605-1.54654172 1.77023793-3.1828381 2.57526814-4.81223026-4.5733448 9.26958444-1.65424731 3.97820242-0.79260263 1.41536183 0.59376157-1.76333373 1.00663296-3.58190109 1.41674268-5.39356424 1.33941561-5.90033284-0.59099987 9.31515219-0.09665885-0.24578968 0.10080139-1.93317715 0-3.87049682-0.09942054-5.8009123-0.37144618-7.18313396 1.53273331 8.66339533 0.19607939 1.6777216-0.61171248-3.19664651-5.46122545-14.66038702-0.62552089-3.9782024-1.49959314-3.31125629-3.48248054-6.38086544-5.59654787-9.32619892 6.04532112 8.42036734 2.47584758 3.35406236 0.72494145 1.48578473-1.76471457-1.88346689-8.68686962-7.39026009 0.20850696-0.55095549-2.88319564-2.21486867-6.07293794-3.99339166-9.32481808-5.5979287 10.27207489 5.06906666-0.59514239 0.14360745-3.97820242-0.62414005-6.93734429-1.57553938 8.84290463 0.81469609 1.6777216 0.19746023-1.18199975-0.10218222-2.72439893-0.13394157-3.90639867-0.13394155h-55.18806518c-18.81809873 0-34.52102059-15.70292185-34.52102057-34.52102057v-98.8433478c0-34.42298087 18.15943765-68.71754356 50.41035591-83.31855442 14.08457639-6.37534208 28.59445177-9.23368258 43.96321012-9.2336826h685.08898511c32.44147429 0 62.57556357 17.43173456 78.81425166 45.50560934 8.36375286 14.45878426 11.65291571 30.9805447 11.6529157 47.50920935v825.09381699c-0.00138084 49.47966922-40.86322247 89.06285225-89.75603432 89.90516516-18.81947957 0.3244976-34.52102059-15.9487115-34.52102059-34.52102059 0-19.06388841 15.70844521-34.19652299 34.52102059-34.52102058 1.93317715-0.03314018 3.83873748-0.13117988 5.76639126-0.29688077-10.68632713 0.92240166-4.44630746 0.55647886-1.7591912-0.05247194 1.80752063-0.41010973 3.56671184-1.00249043 5.32176052-1.59210948 6.57280231-2.21348784-7.71613852 3.626088-1.52859079 0.57442979 2.88043396-1.42088521 12.4510417-8.97132283 3.53219084-1.6404389 1.39464923-1.14747872 2.67468867-2.42613731 3.94920475-3.7006534 6.39743554-6.39881637-3.06546663 4.74456907 0.33002095 0.01518924 1.82823325-2.54627047 7.02295643-13.8815928 2.51451114-2.96880777 1.41950435-3.43829365 2.30738501-7.06714334 3.00470963-10.70980143-2.12925655 11.12681535-0.41701393 2.5435088-0.41701393-0.58685734v-828.20761306c0-1.34908148-0.06351869-2.56422141-0.13394155-3.9105412-0.37144618-7.18313396 1.53273331 8.66339533 0.19746024 1.6777216-0.46534335-2.43304154-1.2179016-4.7998027-2.00636172-7.14308957-2.212107-6.57280231 3.62746883 7.71613852 0.57442978 1.52859079-0.80364937-1.63077301-1.76609541-3.1759339-2.72716063-4.71557142-1.32008382-2.11682898-5.58550113-6.93320177 1.08672173 1.18338059-1.14747872-1.39464923-2.42613731-2.67468867-3.70203425-3.94920475-1.68738749-1.68738749-6.98981625-5.78848474 1.48578473 0.72494143-1.43745531-1.10467265-2.97709281-2.06435703-4.51396864-3.02127972-1.54654172-0.96244605-3.1828381-1.77023793-4.81223028-2.57526814 9.8329675 4.85227466 2.43442237 1.09776845-0.35901861 0.26097892-1.79095055-0.53714707-3.63023053-0.88926149-5.46398713-1.23861422 10.5261496 2.01464676 4.38969297 0.59514239 1.59901367 0.4501541-0.67523117-0.03452103-1.353224-0.03314018-2.03121685-0.03314017H209.74360972c-1.71638514 0-2.15549252 0.04418691-3.86497346 0.13394155-7.18313396 0.37144618 8.66339533-1.53273331 1.6777216-0.19746023-3.19802734 0.61171248-14.66038702 5.46122545-3.97820241 0.62414005-1.65838982 0.75117741-3.23807173 1.66529403-4.81223028 2.57526814-2.33638267 1.35184317-8.90642331 6.90006158-0.35487608-0.1284182-2.36399948 1.94284304-10.35078281 11.48445313-3.22426333 2.21486867-2.21624951 2.88319564-3.99339166 6.07293794-5.59654786 9.32619892 5.06768583-10.27207489 0.1422266 0.59514239-0.62552088 3.97820241-1.57415854 6.93872514 0.81469609-8.84152379 0.19607939-1.6777216-0.11184811 1.28970533-0.13256073 2.66916532-0.13256071 3.96025149v101.54151077l-34.52102059-34.52102058h51.14220157c16.15169511 0 30.43097006 3.34577731 45.10102296 9.98762166 20.54000725 9.29720127 34.64253457 28.45912937 42.99109818 48.66911565 16.74407582 40.52905899-3.44381701 89.76570023-41.35618263 110.05715613-23.78636402 12.73135238-49.80969017 10.79403271-75.75154673 10.7940327h-22.12659335l34.52102059-34.52102056v137.74715714l-34.52102059-34.52102057h51.14220157c16.15169511 0 30.43097006 3.34577731 45.10102296 9.98762166 20.54000725 9.29720127 34.64253457 28.45912937 42.99109818 48.66773481 16.74407582 40.52905899-3.44381701 89.76570023-41.35618263 110.05715612-23.78636402 12.73135238-49.80969017 10.79403271-75.75154673 10.79403271h-22.12659335l34.52102059-34.52102058V579.62306201l-34.52102059-34.52102057h51.14220157c16.15169511 0 30.43097006 3.34577731 45.10102296 9.98762167 20.54000725 9.29858209 34.64253457 28.46051021 42.99109818 48.67049649 16.74407582 40.52767815-3.44381701 89.76570023-41.35618263 110.05715612-23.78636402 12.73135238-49.80969017 10.79403271-75.75154673 10.79403272h-22.12659335l34.52102059-34.52102058v119.68161665c0 1.93179631 0.13117988 3.84288 0.29688077 5.76639128-0.92240166-10.68770797-0.55647886-4.44630746 0.05247196-1.76057205 0.41010973 1.80752063 1.00249043 3.56809269 1.59210946 5.32176052 2.21348784 6.57280231-3.626088-7.71475769-0.57442978-1.52859079 0.80364937 1.62939218 1.76747625 3.17455306 2.72716063 4.71557143 4.80256438 7.70647264-3.73655527-4.20189863 0.10356306 0.1726051 1.19166563 1.3559857 2.51036862 2.59321907 3.82630991 3.82630991 4.97655033 4.66309945-6.88072982-4.88679566-1.33251138-0.90306989 2.54627047 1.82823325 13.8815928 7.02433726 2.96880776 2.51589197 3.43691281 1.42088521 7.06714334 2.30738501 10.70842059 3.00332879-11.17376395-2.1375416-2.65397606-0.41563309 0.37282703-0.41563309h690.38865218c18.81809873 0 34.52102059 15.70292185 34.52102056 34.52102058s-15.70292185 34.52102059-34.52102056 34.52102059zM154.50583428 724.6127292799999h-51.14220157c-16.15169511 0-30.43097006-3.34577731-45.10102296-9.98762168-20.54000725-9.29858209-34.64253457-28.46051021-42.99109818-48.6704965-16.74407582-40.52767815 3.44381701-89.76570023 41.35618265-110.05715612 23.78636402-12.73135238 49.80969017-10.79403271 75.75154671-10.79403269h22.12521251c18.81809873 0 34.52102059 15.70292185 34.52102058 34.52102057s-15.70292185 34.52102059-34.52102058 34.52102057h-51.14220157c-2.65673775 0-5.29690539-0.00414253-7.95226229 0.13256073-7.18313396 0.37144618 8.66339533-1.53273331 1.6777216-0.19607942-1.82823325 0.34935274-3.61504127 0.88511897-5.39494511 1.41674269-2.41232893 0.72217975-8.31818512 3.61504127 1.41536184-0.79260262-2.21072615 1.0011096-4.29579581 2.25353221-6.35186778 3.5349525-2.11682898 1.32008382-6.93320177 5.58412029 1.18476143-1.08672173-1.39464923 1.14609788-2.67468867 2.42475649-3.94920474 3.70065341-1.68738749 1.68738749-5.78986557 6.98981625 0.72494142-1.48578473-1.10467265 1.43745531-2.06435703 2.97709281-3.02127972 4.51396865-0.96244605 1.54654172-1.77023793 3.18145726-2.57526813 4.81223028 4.5733448-9.26958444 1.65424731-3.97820242 0.79260263-1.41674269-0.59376157 1.76333373-1.00663296 3.58190109-1.41674268 5.3949451-1.33941561 5.90033284 0.59099987-9.31653303 0.09665885 0.24440882-0.10080139 1.93317715 0 3.87049682 0.09942054 5.8009123 0.37144618 7.18313396-1.53273331-8.66339533-0.19607939-1.6777216 0.61171248 3.19802734 5.46122545 14.66038702 0.62552088 3.97820242 1.49959314 3.31263713 3.48248054 6.38086544 5.59654785 9.32619891-6.04532112-8.42036734-2.47584758-3.35406236-0.72494143-1.48578473 1.76471457 1.88346689 8.68686962 7.39026009-0.20850695 0.55095549 2.88319564 2.21624951 6.07293794 3.99339166 9.32481807 5.59654785-10.27207489-5.06768583 0.59514239-0.1422266 3.97820242 0.62552091 6.93734429 1.57415854-8.84290463-0.81469609-1.6777216-0.19607941 1.18199975 0.10218222 2.72439893 0.13256073 3.90777952 0.13256072h55.18806518c18.81809873 0 34.52102059 15.70292185 34.52102058 34.52102058s-15.70292185 34.52240142-34.52102058 34.52240142z m0-248.50163789h-51.14220157c-16.15169511 0-30.43097006-3.34577731-45.10102296-9.98762167-20.54000725-9.29858209-34.64253457-28.46051021-42.99109818-48.6704965-16.74407582-40.52767815 3.44381701-89.76570023 41.35618265-110.0571561 23.78636402-12.72997154 49.80969017-10.79265187 75.75154671-10.79265189h22.12521251c18.81809873 0 34.52102059 15.701541 34.52102058 34.52102059 0 18.8167179-15.70292185 34.52102059-34.52102058 34.52102057h-51.14220157c-2.65673775 0-5.29690539-0.00552336-7.95226229 0.13256072-7.18313396 0.37282702 8.66339533-1.53135246 1.6777216-0.19746023-1.82823325 0.35073356-3.61504127 0.88511897-5.39494511 1.41812352-2.41232893 0.72217975-8.31818512 3.61366045 1.41536184-0.79260263-2.21072615 1.0011096-4.29579581 2.25353221-6.35186778 3.53357166-2.11682898 1.32008382-6.93320177 5.58550113 1.18476143-1.08672173-1.39464923 1.14747872-2.67468867 2.42751817-3.94920474 3.70203424-1.68738749 1.68738749-5.78986557 6.98981625 0.72494142-1.48440388-1.10467265 1.43745531-2.06435703 2.97709281-3.02127972 4.51258782-0.96244605 1.54654172-1.77023793 3.1828381-2.57526813 4.8136111 4.5733448-9.26958444 1.65424731-3.97820242 0.79260263-1.41674268-0.59376157 1.76333373-1.00663296 3.58328194-1.41674268 5.39494509-1.33941561 5.90033284 0.59099987-9.31653303 0.09665885 0.24440884-0.10080139 1.93179631 0 3.87049682 0.09942054 5.79953146 0.37144618 7.18451481-1.53273331-8.66201449-0.19607939-1.6777216 0.61171248 3.19802734 5.46122545 14.66038702 0.62552088 3.97820239 1.49959314 3.31263713 3.48248054 6.38086544 5.59654785 9.32619892-6.04532112-8.42036734-2.47584758-3.35268153-0.72494143-1.48440388 1.76471457 1.88346689 8.68686962 7.39026009-0.20850695 0.55095549 2.88319564 2.21624951 6.07293794 3.99339166 9.32481807 5.59654786-10.27207489-5.06768583 0.59514239-0.1422266 3.97820242 0.62552089 6.93734429 1.57415854-8.84290463-0.81469609-1.6777216-0.1960794 1.18199975 0.10218222 2.72439893 0.13256073 3.90777952 0.13256073h55.18806518c18.81809873 0 34.52102059 15.70292185 34.52102058 34.52102058s-15.70292185 34.51963973-34.52102058 34.51963972z m0-248.21304215h-51.14220157c-16.15169511 0-30.43097006-3.34715815-45.10102296-9.9890025-20.54000725-9.29582043-34.64253457-28.45774851-42.99109818-48.66911566-16.74407582-40.52767815 3.44243617-89.76570023 41.35618265-110.05715611 23.78636402-12.72997154 49.80969017-10.79265187 75.75154671-10.79265187h22.12521251c18.81809873 0 34.52102059 15.701541 34.52102058 34.52102057 0 18.8167179-15.70292185 34.52102059-34.52102058 34.52102057h-51.14220157c-2.65673775 0-5.29690539-0.00552336-7.95226229 0.13256072-7.18313396 0.37282702 8.66339533-1.53135246 1.6777216-0.19746023-1.82823325 0.35073356-3.61504127 0.88511897-5.39494511 1.41812352-2.41232893 0.72217975-8.31818512 3.61366045 1.41536184-0.79260262-2.21072615 1.0011096-4.29579581 2.25215137-6.35186778 3.53357167-2.11682898 1.32146466-6.93320177 5.58550113 1.18476143-1.08672173-1.39464923 1.14885956-2.67468867 2.42751817-3.94920474 3.70341507-1.68738749 1.68600665-5.78986557 6.9884354 0.72494142-1.48578471-1.10467265 1.43745531-2.06435703 2.97709281-3.02127972 4.51258779-0.96244605 1.54792257-1.77023793 3.1828381-2.57526813 4.81361112 4.5733448-9.26958444 1.65424731-3.97820242 0.79260263-1.41536184-0.59376157 1.76333373-1.00663296 3.58190109-1.41674268 5.39356425-1.33941561 5.90033284 0.59099987-9.31515219 0.09665885 0.24578966-0.10080139 1.93317715 0 3.87049682 0.09942054 5.80091229 0.37144618 7.18175312-1.53273331-8.66477616-0.19607939-1.6777216 0.61171248 3.19526567 5.46122545 14.66038702 0.62552088 3.97820242 1.49959314 3.31125629 3.48248054 6.38086544 5.59654785 9.32619894-6.04532112-8.42036734-2.47584758-3.3554432-0.72494143-1.48578475 1.76471457 1.88208604 8.68686962 7.39026009-0.20850695 0.54957466 2.88319564 2.21624951 6.07293794 3.9947725 9.32481807 5.59930953-10.27207489-5.0704475 0.59514239-0.14360745 3.97820242 0.62275922 6.93734429 1.57553938-8.84290463-0.81469609-1.6777216-0.19746025 1.18199975 0.10218222 2.72439893 0.1353224 3.90777952 0.13532241h55.18806518c18.81809873 0 34.52102059 15.701541 34.52102058 34.52102057 0 18.81395621-15.70292185 34.51825889-34.52102058 34.51825889z"  horiz-adv-x="1024" />

    
    <glyph glyph-name="yongshuixingzhishezhi-shuijiagoucheng" unicode="&#58993;" d="M511.88016-49.110327a431.725241 431.725241 0 0 1 302.008939 122.730652l-301.828276 174.641261-302.008939-174.641261A431.725241 431.725241 0 0 1 511.88016-49.110327zM89.609635 95.059045l422.631852 244.136438 422.270524-244.136438a511.879558 511.879558 0 0 0-844.902376 0zM393.846756 452.892966v349.282522a434.85674 434.85674 0 0 1-302.008939-523.923783zM0.000602 384.722653A512.481769 512.481769 0 0 0 472.615987 896v-488.634204L50.164799 163.108916A511.337568 511.337568 0 0 0 0.000602 384.722653z m945.471654 0a434.073865 434.073865 0 0 1-315.076923 417.573277v-349.282521l302.008939-174.641261A435.639614 435.639614 0 0 1 945.472256 384.722653z m-394.087038 22.884028V896a513.204422 513.204422 0 0 0 422.57163-732.710421L551.385218 407.606681z"  horiz-adv-x="1024" />

    
    <glyph glyph-name="yongshuixingzhishezhi-lishishuijia" unicode="&#58994;" d="M752.827149-99.804227H659.781097V795.482068h93.046052v-895.286295z m-315.792661 0H343.917946V867.804227h93.046052v-967.608454z m631.585323 0.140979h-93.046052v251.929235h93.046052v-251.929235z m-947.377985 0H28.195773V426.540373h93.046053v-526.203621zM372.113719 839.608453v-911.216906h36.654506V839.608453h-36.654506m315.792662-72.322159v-838.894747h36.724995V767.286294h-36.654505M56.391547 398.3446v-469.812074h36.654505V398.3446H56.391547m947.377986-274.203896v-195.608178h36.654505v195.537688h-36.654505M315.722173 896h149.437598v-1024H315.792662V896z m315.792661-72.322159h149.508089v-951.677841H631.585324V823.677841zM0 454.736146h149.437599v-582.595167H0V454.736146z m947.377986-274.203896h149.437599v-308.391271h-149.437599v308.320782z"  horiz-adv-x="1096" />

    
    <glyph glyph-name="yongshuixingzhishezhi-shuijiatiaozheng" unicode="&#58995;" d="M972.861966 704.49328H282.955093a141.020957 141.020957 0 1 0 0 87.991337h689.906873a44.028282 44.028282 0 1 0 0-87.991337zM201.682145 748.521562a53.486209 53.486209 0 0 1-91.317918 37.309892 52.181668 52.181668 0 0 1-15.393592-37.244665 53.420982 53.420982 0 0 1 106.841965 0z m771.63641-408.582458h-91.317918a141.999363 141.999363 0 0 0-269.387859 0H54.790751a44.028282 44.028282 0 1 0 0 87.991337h557.495891a141.999363 141.999363 0 0 0 269.38786 0h91.317918a44.028282 44.028282 0 1 0 0-87.991337z m-226.337983 97.123129a53.094847 53.094847 0 1 1 53.420982-53.094847 53.355755 53.355755 0 0 1-53.420982 53.094847z m-598.719409-276.30193a141.934136 141.934136 0 0 0 134.69393-97.253583h689.776419a44.354417 44.354417 0 0 0 44.28919-43.767374 44.158736 44.158736 0 0 0-44.158736-44.028282H282.955093a141.673228 141.673228 0 1 0-134.69393 185.114466z m-53.420982-141.281865a53.420982 53.420982 0 1 1 53.420982 53.094847 53.355755 53.355755 0 0 1-53.420982-53.094847z"  horiz-adv-x="1024" />

    
    <glyph glyph-name="yongshuixingzhishezhi-chexiaoshuijiatiaozheng" unicode="&#58996;" d="M593.272899-73.558342a50.267412 50.267412 0 0 0 51.323711 49.211113 386.543351 386.543351 0 0 1 283.709523 109.544434 420.904141 420.904141 0 0 1 19.634737 579.224742 386.543351 386.543351 0 0 1-559.217193 20.318225 412.950829 412.950829 0 0 1-126.072409-285.387175v-1.30484l115.882229 85.31169a47.719867 47.719867 0 0 0 68.348768-11.805696 52.877092 52.877092 0 0 0-12.054237-71.517666l-207.096767-152.852699a47.719867 47.719867 0 0 0-68.348768 11.805696L9.263744 477.208458A51.634387 51.634387 0 0 0 20.696629 548.042635a47.719867 47.719867 0 0 0 68.348768-11.805696L165.285341 425.387664a517.462309 517.462309 0 0 0 155.835191 333.231312A486.581093 486.581093 0 0 0 675.788503 895.751459a478.814188 478.814188 0 0 0 190.630927-47.28492 495.528568 495.528568 0 0 0 153.225511-115.447283 515.039035 515.039035 0 0 0 100.037742-166.646724 537.96694 537.96694 0 0 0 32.310327-200.758972 525.229215 525.229215 0 0 0-45.545133-197.465804 506.899318 506.899318 0 0 0-110.849275-158.755548 486.581093 486.581093 0 0 0-354.667971-137.132483 52.069334 52.069334 0 0 0-47.719867 54.119798z"  horiz-adv-x="1152" />

    
    <glyph glyph-name="lianhe1" unicode="&#58991;" d="M740.328803-75.640129V333.959871L596.50485399 191.46148900000003a51.034304 51.034304 0 0 0-58.98770198 0 33.139159 33.139159 0 0 0 0 45.732039L748.28220099 432.05178a31.813592 31.813592 0 0 0 22.53462701 9.278964A33.139159 33.139159 0 0 0 795.33980601 432.05178l198.83495099-198.834952a33.80194199 33.80194199 0 0 0 0-45.73203799 33.139159 33.139159 0 0 0-46.394822 0L805.281553 332.63430400000004v-408.274433a32.476375 32.476375 0 0 0-32.47637501-32.47637599 33.139159 33.139159 0 0 0-32.47637499 32.47637599z m-658.80647299-31.15081a61.638835 61.638835 0 0 0-61.638835 61.638835v861.618123a61.638835 61.638835 0 0 0 61.638835 59.65048601h861.61812299a62.30161801 62.30161801 0 0 0 62.301618-61.63883502V498.330097a32.476375 32.476375 0 0 0-32.476375-31.81359201 31.813592 31.813592 0 0 0-35.127508 31.81359201V787.3035600000001a23.86019401 23.86019401 0 0 1-23.86019399 23.86019401H108.69644a23.86019401 23.86019401 0 0 1-23.86019401-23.86019401v-804.61876999a24.522977 24.522977 0 0 1 23.86019401-24.52297801h304.880259a33.139159 33.139159 0 0 0 0-66.27831701h-331.39158599zM773.467961-128a52.359871 52.359871 0 0 0-52.35987 52.359871V285.57669899999996l-108.69644099-108.03365701a69.592233 69.592233 0 0 0-84.17346201 0 50.371521 50.371521 0 0 0-17.89514599 38.441424 49.045955 49.045955 0 0 0 14.58122999 37.11585801l209.43948201 198.834951a52.359871 52.359871 0 0 0 74.89449799 0l198.834952-198.834951a52.359871 52.359871 0 0 0-74.231715-73.568932l-108.69644 105.382524v-360.554045a52.359871 52.359871 0 0 0-51.697088-52.359871z m-13.25566299 52.359871c0-13.918447 25.185761-13.918447 25.18576 0V381.017476l174.97475799-175.637541a13.255663 13.255663 0 0 1 17.895145 0 11.930097 11.930097 0 0 1 0 17.895146l-198.83495099 198.834951a12.59288 12.59288 0 0 1-17.89514601 0l-210.765048-198.834951a13.255663 13.255663 0 0 1 0-17.23236301 30.48802601 30.48802601 0 0 1 33.13915801 2e-8l173.64919099 173.64919099z m-346.63559901-50.37152101h-331.39158599A80.859547 80.859547 0 0 0 0-45.15210400000001v861.618123A81.52232999 81.52232999 0 0 0 81.52233001 896h861.61812299a82.18511301 82.18511301 0 0 0 81.52233-81.52232999V498.330097a52.359871 52.359871 0 0 0-52.35987-51.69708701 52.359871 52.359871 0 0 0-54.34822 51.69708701V787.3035600000001a4.63948201 4.63948201 0 0 1-4.63948299 3.976699H108.69644a3.976699 3.976699 0 0 1-3.976699-3.976699v-804.61876999a4.63948201 4.63948201 0 0 1 3.976699-4.63948301h304.880259a52.359871 52.359871 0 1 0 0-104.05695699zM81.52233001 856.23300999a44.406472 44.406472 0 0 1-29.82524301-11.93009699 44.406472 44.406472 0 0 1-11.93009701-29.82524299v-861.61812301a41.75534 41.75534 0 0 1 41.75534-41.75534h331.39158601a12.59288 12.59288 0 0 1 12.59288 12.59288 11.930097 11.930097 0 0 1-12.59288 12.592881H108.69644a44.406472 44.406472 0 0 0-42.418123 45.73203801V787.3035600000001A44.406472 44.406472 0 0 0 108.69644 829.721683h805.28155401a44.406472 44.406472 0 0 0 43.74368899-43.74368901V498.330097a11.930097 11.930097 0 0 1 12.59288-11.930097 12.59288 12.59288 0 0 1 8.616181 0 11.930097 11.930097 0 0 1 3.976699 11.930097V814.47766999A41.75534 41.75534 0 0 1 941.152104 856.23300999h-861.618123z"  horiz-adv-x="1024" />

    
    <glyph glyph-name="lishixiangqing" unicode="&#58992;" d="M410.25902094 290.48580844a372.81529312 372.81529312 0 1 0 372.81529218-372.81529313 372.81529312 372.81529312 0 0 0-372.81529218 372.81529313z m62.13588187 0a310.67941031 310.67941031 0 1 1 310.67941031 305.70853969 306.95125781 306.95125781 0 0 1-310.67941031-305.70853969zM85.28835781 14.602491559999976a31.6893 31.6893 0 0 0-32.31065906 31.6893 31.6893 31.6893 0 0 0 32.31065906 31.6893H385.40466781a32.31065906 32.31065906 0 1 0 0-62.13588281z m690.95100844 186.40764657a34.17473531 34.17473531 0 0 0-34.17473531 34.17473531V440.8546425a34.79609438 34.79609438 0 0 0 68.97082969 0v-172.11639281h116.81545781a34.17473531 34.17473531 0 0 0 0-68.34947063zM85.28835781 271.22368500000005A32.31065906 32.31065906 0 0 0 52.97769875 304.77706125a31.6893 31.6893 0 0 0 32.31065906 31.6893H285.98725625a31.6893 31.6893 0 0 0 29.20386469-31.6893 32.31065906 32.31065906 0 0 0-29.20386469-33.55337625z m0 256.6211925a31.6893 31.6893 0 0 0-32.31065906 31.6893 32.31065906 32.31065906 0 0 0 32.31065906 32.31065906H385.40466781a32.31065906 32.31065906 0 1 0 0-62.13588187zM99.57961062 784.46607094a32.31065906 32.31065906 0 1 0 1e-8 62.13588187h869.90234906a32.31065906 32.31065906 0 0 0 32.31065906-32.31065812 31.6893 31.6893 0 0 0-32.31065906-31.6893H99.57961062zM783.07431313-95.99937843999999a388.34926312 388.34926312 0 0 0-388.97062126 385.86382781A388.34926312 388.34926312 0 0 0 783.07431313 677.59235344a386.48518687 386.48518687 0 1 0-1e-8-772.34901469zM425.17163281 290.48580844A356.65996312 356.65996312 0 0 1 783.07431313-68.03823187a356.65996312 356.65996312 0 1 1-1e-8 713.31992718 357.28132219 357.28132219 0 0 1-357.90268031-354.79588687zM783.07431313-31.378061249999973a323.10658688 323.10658688 0 0 0-324.34930407 321.24251063A323.10658688 323.10658688 0 0 0 783.07431313 611.72831906a321.86386969 321.86386969 0 1 0-1e-8-643.10638031z m-1e-8 31.06794094a290.79592875 290.79592875 0 1 1 0 580.9704975 291.41728688 291.41728688 0 0 1-293.28136312-290.79592781A291.41728688 291.41728688 0 0 1 783.07431313-0.31012031000000206z m-396.42692718 0H85.28835781a47.84462906 47.84462906 0 1 0 0 95.0679H385.40466781a47.84462906 47.84462906 0 1 0 0-95.0679z m-300.11631094 62.13588187a16.77668812 16.77668812 0 1 1 0-32.93201719H385.40466781a16.77668812 16.77668812 0 1 1 0 32.93201719z m842.56256156 124.27176469h-152.85427031a49.70870531 49.70870531 0 0 0-49.70870531 49.70870531v205.04841094a50.33006438 50.33006438 0 1 0 100.03876968 0v-156.58242281h101.28148782a49.70870531 49.70870531 0 0 0 0-99.41741156zM776.23936625 460.11676594a19.8834825 19.8834825 0 0 1-18.64076437-19.26212344v-206.29112813a18.64076437 18.64076437 0 0 1 18.64076437-18.64076437h151.61155219a18.64076437 18.64076437 0 0 1 0 37.28152875H795.50148969v186.40764656a19.8834825 19.8834825 0 0 1-19.26212344 20.50484063zM285.98725625 255.68971406000003H85.28835781a47.84462906 47.84462906 0 1 0 0 95.0679H285.98725625a47.22327 47.22327 0 0 0 44.73783562-45.98055281 47.84462906 47.84462906 0 0 0-44.73783562-49.08734719z m-197.592105 62.13588188a16.77668812 16.77668812 0 1 1 0-32.93201719H285.98725625a16.77668812 16.77668812 0 1 1 0 32.93201719zM385.40466781 512.3109075H85.28835781a47.84462906 47.84462906 0 1 0 0 95.06789906H385.40466781a47.84462906 47.84462906 0 1 0 0-95.06789906z m-300.11631 62.13588187a16.77668812 16.77668812 0 1 1 0-32.93201718H385.40466781a16.77668812 16.77668812 0 1 1 0 32.93201718z m889.1644725 192.62123438H99.57961062A48.46598813 48.46598813 0 1 0 99.57961062 864h869.90234907a47.84462906 47.84462906 0 0 0 47.84462906-47.84462906 47.84462906 47.84462906 0 0 0-42.87375844-47.22327094zM99.57961062 832.93205906A16.77668812 16.77668812 0 1 1 99.57961062 801.86411813h869.90234907a16.77668812 16.77668812 0 1 1 0 32.93201718z"  horiz-adv-x="1229" />

    
    <glyph glyph-name="yi" unicode="&#58990;" d="M988.39008395 401.60900743a62.13783703 62.13783703 0 0 0-62.13783704-62.13783705H97.74775309a62.13783703 62.13783703 0 1 0 0 124.27567408h828.50449382a62.13783703 62.13783703 0 0 0 62.13783704-62.13783703z"  horiz-adv-x="1024" />

    
    <glyph glyph-name="lianhe" unicode="&#58989;" d="M431.200669-118.710184L11.474323 258.407689a33.107441 33.107441 0 0 0-11.401238 24.995022 35.080732 35.080732 0 0 0 11.401238 26.01821L431.200669 686.319539a33.69212 33.69212 0 0 0 36.542429 6.066044 34.130629 34.130629 0 0 0 20.536846-31.28032v-154.135968h260.182098a34.203714 34.203714 0 0 0 34.422969-34.276799 34.203714 34.203714 0 0 0-34.422969-34.276799H454.003145a34.203714 34.203714 0 0 0-34.422969 34.276799V583.342973l-334.290145-299.647922 334.290145-299.647923v111.381326a34.349884 34.349884 0 0 0 34.422969 34.422968h294.458897a34.349884 34.349884 0 0 0 34.422969-34.422968 34.203714 34.203714 0 0 0-34.422969-34.349884h-260.182098v-154.135968a33.253611 33.253611 0 0 0-20.536846-31.28032 39.392739 39.392739 0 0 0-13.739953-2.996479 32.230423 32.230423 0 0 0-22.802476 8.624013z m571.450513 195.428914a34.276799 34.276799 0 0 0-20.536846 31.280319V262.135017h-259.451249a34.130629 34.130629 0 0 0-34.276799 34.349884 34.203714 34.203714 0 0 0 34.276799 34.422969h294.605067a34.276799 34.276799 0 0 0 34.276799-34.422969v-111.381325l333.559296 299.647922-334.290145 299.647922V673.09118a34.349884 34.349884 0 0 0-34.422969-34.496054H722.663087a34.203714 34.203714 0 0 0-34.276799 34.496054 34.203714 34.203714 0 0 0 34.276799 34.276799h260.182098V861.577031a33.107441 33.107441 0 0 0 20.683015 31.207235 34.057544 34.057544 0 0 0 36.54243-6.066043l419.726345-376.898618a33.765205 33.765205 0 0 0 11.401238-25.360447 31.718829 31.718829 0 0 0-11.401238-25.214276l-419.726345-376.898618a35.957751 35.957751 0 0 0-23.75258-9.062523 30.403301 30.403301 0 0 0-13.666868 3.361904z"  horiz-adv-x="1472" />

    
    <glyph glyph-name="level2" unicode="&#58988;" d="M923.08723978 62.64990258a123.69506836 123.69506836 0 0 0-123.69506836 123.59619094A123.69506836 123.69506836 0 0 0 923.08723978 309.94116188h1137.08496071A123.69506836 123.69506836 0 0 0 2183.76839213 186.24609352000004 123.59619164 123.59619164 0 0 0 2060.17220049 62.64990258z m-395.50781296 395.50781226A123.69506836 123.69506836 0 0 0 403.88435846 581.7539064800001 123.69506836 123.69506836 0 0 0 527.57942682 705.44897484h1532.59277367A123.69506836 123.69506836 0 0 0 2183.76839213 581.7539064800001 123.59619164 123.59619164 0 0 0 2060.17220049 458.15771484z"  horiz-adv-x="2594" />

    
    <glyph glyph-name="level3" unicode="&#58985;" d="M936.050276-79.24738100000002a107.255761 107.255761 0 0 0-107.255761 107.25576 107.255761 107.255761 0 0 0 107.255761 107.255761h760.540849a107.255761 107.255761 0 0 0 107.255761-107.255761 107.255761 107.255761 0 0 0-107.255761-107.25576z m-390.020948 355.99162a107.255761 107.255761 0 0 0-107.255761 107.255761 107.255761 107.255761 0 0 0 107.255761 107.255761h1150.561797a107.255761 107.255761 0 0 0 107.255761-107.255761 107.255761 107.255761 0 0 0-107.255761-107.255761zM156.008379 632.73586A107.255761 107.255761 0 0 0 48.752619 739.991621 107.255761 107.255761 0 0 0 156.008379 847.247381h1540.582746a107.255761 107.255761 0 0 0 107.255761-107.25576 107.255761 107.255761 0 0 0-107.255761-107.255761z"  horiz-adv-x="1852" />

    
    <glyph glyph-name="level5" unicode="&#58986;" d="M1193.053418-90.70770100000004a67.531326 67.531326 0 0 0-67.531325 67.531325 67.531326 67.531326 0 0 0 67.531325 67.531326h127.559171a67.531326 67.531326 0 0 0 67.531325-67.531326 67.531326 67.531326 0 0 0-67.531325-67.531325z m-187.587015 182.484648a67.531326 67.531326 0 0 0-67.531326 67.531326 67.531326 67.531326 0 0 0 67.531326 67.531325h315.146186a67.531326 67.531326 0 0 0 67.531325-67.531325 67.531326 67.531326 0 0 0-67.531325-67.531326z m-300.139225 210.472632a67.531326 67.531326 0 0 0-67.531325 67.531325 67.531326 67.531326 0 0 0 67.531325 67.531326h615.285411a67.531326 67.531326 0 0 0 67.531325-67.531326 67.531326 67.531326 0 0 0-67.531325-67.531325z m-300.139225 210.097457a67.531326 67.531326 0 0 0-67.531325 67.531326 67.531326 67.531326 0 0 0 67.531325 67.531325h915.424636a67.531326 67.531326 0 0 0 67.531325-67.531325 67.531326 67.531326 0 0 0-67.531325-67.531326z m-300.139224 210.472631a67.531326 67.531326 0 0 0-67.531326 67.531326 67.531326 67.531326 0 0 0 67.531326 67.531325h1215.56386a67.531326 67.531326 0 0 0 67.531325-67.531325 67.531326 67.531326 0 0 0-67.531325-67.531326z"  horiz-adv-x="1425" />

    
    <glyph glyph-name="level4" unicode="&#58987;" d="M1072.958708-88.26078900000005a79.478423 79.478423 0 0 0-79.478422 79.478423 79.478423 79.478423 0 0 0 79.478422 79.478423h317.913692a79.478423 79.478423 0 0 0 79.478423-79.478423 79.478423 79.478423 0 0 0-79.478423-79.478423z m-317.913691 262.278796a79.478423 79.478423 0 0 0-79.478423 79.478423 79.478423 79.478423 0 0 0 79.478423 79.478423h635.827383a79.478423 79.478423 0 0 0 79.478423-79.478423 79.478423 79.478423 0 0 0-79.478423-79.478423z m-317.913691 261.801925a79.478423 79.478423 0 0 0-79.478423 79.478423 79.478423 79.478423 0 0 0 79.478423 79.478422h953.741074a79.478423 79.478423 0 0 0 79.478423-79.478422 79.478423 79.478423 0 0 0-79.478423-79.478423z m-317.913692 261.801925a79.478423 79.478423 0 0 0-79.478423 79.478422 79.478423 79.478423 0 0 0 79.478423 79.478423h1271.654766a79.478423 79.478423 0 0 0 79.478423-79.478423 79.478423 79.478423 0 0 0-79.478423-79.478422z"  horiz-adv-x="1510" />

    
    <glyph glyph-name="jiaose" unicode="&#58982;" d="M574.605963-128a198.259927 198.259927 0 0 0-196.17298 194.086034 196.17298 196.17298 0 0 0 54.95626 139.129773 198.955576 198.955576 0 0 0 139.129774 61.2171 198.955576 198.955576 0 0 0 198.259926-198.955576 201.042522 201.042522 0 0 0-196.17298-195.477331z m0 313.737638a115.477712 115.477712 0 0 1 0-230.259774 117.564658 117.564658 0 0 1 114.086414 115.477712 115.477712 115.477712 0 0 1-114.086414 114.782062z m208.69466-54.95626l-45.217176 69.564887a333.215807 333.215807 0 0 1 155.129697 278.259546v11.826031h83.477864V478.605811a417.389319 417.389319 0 0 0-190.60779-347.824433zM198.259927 495.301384h-4.173893A196.868629 196.868629 0 0 0 2.782595 698.430853 201.042522 201.042522 0 0 0 197.564278 895.99513a198.259927 198.259927 0 0 0 199.651224-198.259926V687.300471a199.651224 199.651224 0 0 0-198.955575-191.999087z m0 317.215883A118.260307 118.260307 0 0 1 83.477864 696.343906a113.390765 113.390765 0 0 1 31.999848-82.086566 110.60817 110.60817 0 0 1 80.695268-34.782443 116.869009 116.869009 0 0 1 84.869162 31.304198 115.477712 115.477712 0 0 1 35.478092 80.695269v6.26084A115.477712 115.477712 0 0 1 198.955576 812.517267z m728.344362-316.520234h-4.173893a193.390385 193.390385 0 0 0-139.129773 60.521451 198.259927 198.259927 0 0 0-55.651909 139.129773 196.868629 196.868629 0 0 0 58.434504 139.129773 195.477331 195.477331 0 0 0 139.129774 57.738856 201.042522 201.042522 0 0 0 198.259926-197.564278V687.300471a199.651224 199.651224 0 0 0-61.2171-139.129773 196.868629 196.868629 0 0 0-135.651529-52.173665z m-115.477711 200.346873a116.173361 116.173361 0 0 1 31.999847-82.086566 117.564658 117.564658 0 0 1 80.695269-34.782443 118.955956 118.955956 0 0 1 82.086566 31.999847 112.695116 112.695116 0 0 1 35.478092 80.695269A118.955956 118.955956 0 0 1 925.212992 812.517267a115.477712 115.477712 0 0 1-114.086414-114.782063z m-407.650236 69.564887l-43.13023 69.564886a333.215807 333.215807 0 0 0 208.69466 56.347558 462.606496 462.606496 0 0 0 198.955576-50.782367l-38.260688-74.434429a365.215655 365.215655 0 0 1-162.086186 40.347635 247.650996 247.650996 0 0 1-164.173132-44.521528zM338.085349 130.781378a417.389319 417.389319 0 0 0-192.694736 347.824433h83.477864a334.607104 334.607104 0 0 1 154.434048-278.259546z"  horiz-adv-x="1124" />

    
    <glyph glyph-name="fenpei" unicode="&#58981;" d="M848.56354 804.902687v-841.805374H175.091656V804.902687h673.471884m0 84.201226H175.091656A84.201226 84.201226 0 0 1 90.89043 804.902687v-841.805374a84.201226 84.201226 0 0 1 84.201226-84.201226h673.471884a84.201226 84.201226 0 0 1 84.201225 84.201226V804.902687A84.132265 84.132265 0 0 1 848.632501 889.103913zM701.469998 447.20264H322.667924a42.135093 42.135093 0 0 0-29.791097 71.92619L398.042158 624.294161a42.066132 42.066132 0 0 0 59.513233-59.513233l-33.377062-33.377062h277.222708a42.135093 42.135093 0 0 0 0-84.201226zM322.667924 320.935282h378.802074a42.135093 42.135093 0 0 0 29.791097-71.92619l-105.165331-105.165331a42.066132 42.066132 0 1 0-59.513233 59.513233l33.377062 33.377062h-277.222708a42.135093 42.135093 0 0 0 0 84.201226z"  horiz-adv-x="1024" />

    
    <glyph glyph-name="buka" unicode="&#58980;" d="M593.355889-21.177609q-5.076239 7.896371-9.658954 16.004252v0.493523a304.292302 304.292302 0 0 0-17.837338 38.07179H104.838428a24.746663 24.746663 0 0 0-24.46465 24.46465V592.835751H1106.902027v-23.4071a304.292302 304.292302 0 0 0 38.071789-17.837339h0.493523c5.428755-3.031642 10.787007-6.133788 16.074756-9.658954l2.679126-1.692079c5.428755-3.595669 10.787007-7.050331 16.004252-11.210027V791.161572A97.788096 97.788096 0 0 1 1082.578383 888.949669H104.838428A97.788096 97.788096 0 0 1 7.050331 791.161572v-733.234463a97.788096 97.788096 0 0 1 97.788097-97.788096H606.328499a361.25898 361.25898 0 0 0-11.210027 16.004252zM80.373778 791.161572a24.746663 24.746663 0 0 0 24.46465 24.46465h977.739955a24.746663 24.746663 0 0 0 24.46465-24.46465v-125.072878H80.373778zM925.567503 557.654597a342.787112 342.787112 0 1 1 342.787112-342.787112 342.787112 342.787112 0 0 1-342.787112 342.787112z m170.265503-384.87759h-126.905965v-126.694455h-73.816969v126.905965h-126.905965V246.805487h126.905965v126.905964h73.816969v-126.905964h126.905965z"  horiz-adv-x="1268" />

    
    <glyph glyph-name="qiehuan" unicode="&#58977;" d="M1163.920526 213.230363H51.260039a50.198113 50.198113 0 0 1-36.104027-14.962899 51.93574 51.93574 0 0 1 3.957928-75.876379l234.193505-235.448458a50.391183 50.391183 0 0 1 71.435777 0 50.970392 50.970392 0 0 1 0 71.725381L173.666208 110.71037h990.254318a51.259996 51.259996 0 0 1 0 102.423458zM51.260039 554.480998h1112.660487a50.198113 50.198113 0 0 1 10.618832 1.061883 50.970392 50.970392 0 0 1 26.933218 85.916002L963.321143 881.058339a50.391183 50.391183 0 0 1-71.435777 0 50.970392 50.970392 0 0 1 0-71.725381l151.366619-152.331967H51.260039a51.259996 51.259996 0 0 1 0-102.423458z"  horiz-adv-x="1216" />

    
    <glyph glyph-name="zuo" unicode="&#58970;" d="M512 845.25669A461.25669 461.25669 0 1 0 50.74331 384 461.25669 461.25669 0 0 0 512 845.25669m78.144698-683.512389a44.654113 44.654113 0 0 1 27.90882 9.641229 28.923687 28.923687 0 0 1 0 46.176413L410.51338 391.611497l207.540138 174.556987a28.923687 28.923687 0 0 1 5.074331 41.102081 26.386521 26.386521 0 0 1-5.074331 5.581764 47.698712 47.698712 0 0 1-27.90882 9.641229 46.176412 46.176412 0 0 1-27.401388-9.641229L327.294351 415.460852a29.938553 29.938553 0 0 1-5.074331-41.609514l5.074331-5.074331 235.448959-197.391477a43.131814 43.131814 0 0 1 27.401388-9.641229M512 896a512 512 0 1 1 512-512A512.507433 512.507433 0 0 1 512 896z"  horiz-adv-x="1024" />

    
    </font>
</defs>
</svg>
